<?xml version="1.0" encoding="UTF-8"?>
<svg version="1.1" xmlns="http://www.w3.org/2000/svg" width="256" height="256">
<path d="M0 0 C1.77583326 -0.00067648 3.55166644 -0.00164935 5.32749939 -0.00289917 C9.01920467 -0.00435959 12.71088549 -0.00227535 16.40258789 0.00244141 C21.08745551 0.00814187 25.77226585 0.00484699 30.45713139 -0.00113106 C34.11470455 -0.00477823 37.77226457 -0.00357926 41.42983818 -0.00100327 C43.15546107 -0.00034566 44.88108523 -0.00112058 46.60670662 -0.00348282 C94.19655272 -0.05437365 94.19655272 -0.05437365 111.71484375 16.1328125 C122.4874407 27.49020757 126.67940397 41.50908597 127.5246582 56.87646484 C127.56613385 57.61217901 127.6076095 58.34789318 127.65034199 59.10590172 C128.09758433 67.70906443 128.1290078 76.30908746 128.1328125 84.921875 C128.13604129 86.68093897 128.13940644 88.44000269 128.14289856 90.19906616 C128.14883219 93.86139547 128.15074449 97.52370139 128.15014648 101.18603516 C128.15006533 104.88986098 128.15700071 108.59356285 128.1706543 112.29736328 C128.41716511 180.23785572 128.41716511 180.23785572 111.71484375 197.8828125 C88.69015366 219.67746906 52.13563197 214.43488796 22.8425293 214.32843018 C19.07928988 214.31757876 15.31608688 214.31796308 11.55283451 214.31856823 C7.87467968 214.31829396 4.19654743 214.31277331 0.51840019 214.30556679 C-1.21280307 214.30243267 -2.94400883 214.30042536 -4.67521477 214.29967308 C-51.88408096 214.25661866 -51.88408096 214.25661866 -69.74609375 197.4453125 C-87.84964875 179.15639687 -86.19255804 153.264403 -86.203125 129.34375 C-86.20635379 127.58468603 -86.20971894 125.82562231 -86.21321106 124.06655884 C-86.21914469 120.40422953 -86.22105699 116.74192361 -86.22045898 113.07958984 C-86.22037783 109.37576402 -86.22731321 105.67206215 -86.2409668 101.96826172 C-86.48747761 34.02776928 -86.48747761 34.02776928 -69.78515625 16.3828125 C-58.0545373 5.27887103 -44.11026575 1.48100522 -28.28735352 0.57861328 C-27.18664064 0.51544765 -27.18664064 0.51544765 -26.06369114 0.45100594 C-17.37756844 -0.00686253 -8.6958778 -0.01192029 0 0 Z " fill="#141414" transform="translate(107.03515625,20.8671875)"/>
<path d="M0 0 C0.77916779 -0.00570007 1.55833557 -0.01140015 2.3611145 -0.01727295 C4.00684256 -0.02670146 5.65258931 -0.03324838 7.29833984 -0.03710938 C9.80469963 -0.04681454 12.31023872 -0.07785707 14.81640625 -0.109375 C16.41926599 -0.11590592 18.02213156 -0.12115604 19.625 -0.125 C20.36894012 -0.1373468 21.11288025 -0.1496936 21.87936401 -0.16241455 C27.26561087 -0.1395632 31.58651226 0.85031156 35.484375 4.73828125 C36.02191406 5.49431641 36.02191406 5.49431641 36.5703125 6.265625 C39.24322863 9.5918746 39.24322863 9.5918746 42.9453125 11.203125 C45.82554692 11.39755584 48.60997862 11.48344265 51.48999023 11.47436523 C52.35061066 11.47959198 53.21123108 11.48481873 54.09793091 11.49020386 C55.96454993 11.50043632 57.83119742 11.50622295 59.69784355 11.50808525 C62.65270692 11.51174825 65.60723448 11.52847279 68.56202698 11.54884338 C76.96226766 11.60426482 85.36255764 11.63495357 93.76293945 11.65942383 C98.90290771 11.675299 104.04263718 11.70551673 109.18248177 11.74418831 C111.14045744 11.75583774 113.09847581 11.76176865 115.05648613 11.76186943 C117.79499115 11.7620615 120.53283751 11.78032871 123.27124023 11.80249023 C124.0791954 11.79791306 124.88715057 11.79333588 125.71958923 11.78862 C130.31253803 11.84770638 133.28165912 12.37453548 136.9453125 15.203125 C141.4949553 20.24022953 141.09406773 25.57882206 141.09057617 32.08325195 C141.09393478 32.97967407 141.0972934 33.87609619 141.10075378 34.79968262 C141.11025369 37.76360459 141.1122065 40.72747 141.11328125 43.69140625 C141.11649478 45.75400313 141.11985893 47.81659977 141.12336731 49.87919617 C141.12935638 54.20421883 141.13120746 58.52922153 141.13061523 62.85424805 C141.13051369 68.38900873 141.14415895 73.92364091 141.16138744 79.45837116 C141.17252151 83.71952398 141.174534 87.98064588 141.17400551 92.24181175 C141.17518377 94.28189728 141.17959688 96.32198365 141.18733788 98.36205482 C141.19716491 101.21973211 141.19424883 104.07713245 141.18823242 106.93481445 C141.19385193 107.77298203 141.19947144 108.6111496 141.20526123 109.47471619 C141.17654895 114.8575274 141.01221761 120.49978283 137.61328125 124.9453125 C132.54931766 128.82011314 128.53775531 129.32611715 122.3039856 129.33683777 C121.17973175 129.34110275 120.05547791 129.34536774 118.89715576 129.34976196 C117.67313049 129.34930878 116.44910522 129.34885559 115.18798828 129.34838867 C113.24329147 129.35342659 113.24329147 129.35342659 111.25930786 129.35856628 C107.70965563 129.36738512 104.16002752 129.3697435 100.61036539 129.37038207 C98.39061006 129.37109375 96.17086083 129.37323032 93.95110703 129.37587929 C86.20128745 129.38512558 78.45148506 129.38921506 70.70166016 129.38842773 C63.48702299 129.38782707 56.27246062 129.39837842 49.05784237 129.4141714 C42.85555678 129.42726271 36.65329558 129.43261097 30.45099628 129.43197232 C26.75025416 129.43171781 23.04957856 129.43454315 19.34885025 129.44515038 C15.21965703 129.45666307 11.09063065 129.4520748 6.96142578 129.44604492 C5.74144897 129.45166443 4.52147217 129.45728394 3.26452637 129.46307373 C-10.02532897 129.41373798 -10.02532897 129.41373798 -15.3671875 125.515625 C-19.64004762 119.6602241 -19.34755503 112.83160257 -19.3293457 105.88085938 C-19.33445663 104.86695633 -19.33956757 103.85305328 -19.34483337 102.8084259 C-19.35868512 99.47118152 -19.35777616 96.13414464 -19.35546875 92.796875 C-19.35935758 90.46952234 -19.36369264 88.14217038 -19.36845398 85.81481934 C-19.37590631 80.94276628 -19.37563166 76.0707857 -19.37036133 71.19873047 C-19.3645625 64.96112495 -19.38151273 58.72381595 -19.404706 52.48625946 C-19.41944855 47.68209097 -19.42031441 42.87799386 -19.41719627 38.07380676 C-19.41770904 35.77414868 -19.42293831 33.47448656 -19.43300819 31.17485046 C-19.44536756 27.95816842 -19.43858393 24.74206368 -19.42700195 21.52539062 C-19.43464569 20.57972733 -19.44228943 19.63406403 -19.45016479 18.65974426 C-19.4057843 13.07293148 -18.71308879 9.14790627 -16.0546875 4.203125 C-11.42063477 -0.28144215 -6.14521225 0.03491551 0 0 Z " fill="#4886C0" transform="translate(67.0546875,62.796875)"/>
<path d="M0 0 C1.77583326 -0.00067648 3.55166644 -0.00164935 5.32749939 -0.00289917 C9.01920467 -0.00435959 12.71088549 -0.00227535 16.40258789 0.00244141 C21.08745551 0.00814187 25.77226585 0.00484699 30.45713139 -0.00113106 C34.11470455 -0.00477823 37.77226457 -0.00357926 41.42983818 -0.00100327 C43.15546107 -0.00034566 44.88108523 -0.00112058 46.60670662 -0.00348282 C94.19655272 -0.05437365 94.19655272 -0.05437365 111.71484375 16.1328125 C122.4874407 27.49020757 126.67940397 41.50908597 127.5246582 56.87646484 C127.56613385 57.61217901 127.6076095 58.34789318 127.65034199 59.10590172 C128.09758433 67.70906443 128.1290078 76.30908746 128.1328125 84.921875 C128.13604129 86.68093897 128.13940644 88.44000269 128.14289856 90.19906616 C128.14883219 93.86139547 128.15074449 97.52370139 128.15014648 101.18603516 C128.15006533 104.88986098 128.15700071 108.59356285 128.1706543 112.29736328 C128.41716511 180.23785572 128.41716511 180.23785572 111.71484375 197.8828125 C88.53597583 219.82341035 51.36647937 214.409776 21.90991211 214.2701416 C17.05519374 214.24937737 12.20045346 214.24048372 7.34570312 214.23046875 C-2.11463952 214.2092648 -11.57488687 214.17530545 -21.03515625 214.1328125 C-21.03515625 213.8028125 -21.03515625 213.4728125 -21.03515625 213.1328125 C-20.33073395 213.12250504 -19.62631165 213.11219757 -18.90054321 213.10157776 C-12.22245771 213.00310463 -5.54444891 212.9005253 1.13350487 212.79347324 C4.56569933 212.73859398 7.99790265 212.68523518 11.43017578 212.63549805 C15.38712282 212.57808824 19.34394454 212.51380094 23.30078125 212.44921875 C25.12638077 212.42415001 25.12638077 212.42415001 26.98886108 212.39857483 C32.95680815 212.29600066 38.83816699 212.05623627 44.76867676 211.36447144 C48.86276488 210.93261352 52.97763165 210.84724343 57.08984375 210.6953125 C66.14123635 210.31501543 75.00013915 209.43381271 83.96484375 208.1328125 C85.26679688 207.9471875 86.56875 207.7615625 87.91015625 207.5703125 C89.42222656 207.35375 89.42222656 207.35375 90.96484375 207.1328125 C90.96484375 206.4728125 90.96484375 205.8128125 90.96484375 205.1328125 C93.27484375 204.8028125 95.58484375 204.4728125 97.96484375 204.1328125 C98.29484375 203.1428125 98.62484375 202.1528125 98.96484375 201.1328125 C100.44679346 200.09573658 101.97632383 199.12592445 103.52734375 198.1953125 C113.99396702 191.03787913 118.63946056 180.29837656 120.96484375 168.1328125 C121.91739523 160.80067006 122.16419799 153.49131299 122.28125 146.10546875 C122.31242165 144.43936806 122.31242165 144.43936806 122.34422302 142.73960876 C122.40906252 139.22489994 122.46826118 135.71012231 122.52734375 132.1953125 C122.57059732 129.80923812 122.61421365 127.4231703 122.65820312 125.03710938 C123.53625472 109.39576346 123.53625472 109.39576346 120.96484375 94.1328125 C120.30484375 95.1228125 119.64484375 96.1128125 118.96484375 97.1328125 C118.96484375 95.1528125 118.96484375 93.1728125 118.96484375 91.1328125 C118.30484375 90.8028125 117.64484375 90.4728125 116.96484375 90.1328125 C115.97484375 92.4428125 114.98484375 94.7528125 113.96484375 97.1328125 C113.74828125 96.235625 113.74828125 96.235625 113.52734375 95.3203125 C113.07759985 93.57130846 112.53592034 91.84604227 111.96484375 90.1328125 C112.95484375 88.6478125 112.95484375 88.6478125 113.96484375 87.1328125 C112.75828125 86.2665625 112.75828125 86.2665625 111.52734375 85.3828125 C107.84481058 82.14936874 107.91249333 78.87864214 107.08984375 74.1953125 C106.3242436 70.28672226 105.31886172 67.40796793 102.96484375 64.1328125 C102.63484375 63.4728125 102.30484375 62.8128125 101.96484375 62.1328125 C101.30484375 63.1228125 100.64484375 64.1128125 99.96484375 65.1328125 C99.34635417 63.40755208 98.72786458 61.68229167 98.109375 59.95703125 C96.43793791 57.29300012 94.81666036 56.48641799 91.96484375 55.1328125 C89.0116008 54.85409763 86.27237757 54.73562271 83.32250977 54.76391602 C82.46334961 54.76014954 81.60418945 54.75638306 80.71899414 54.75250244 C78.85838981 54.74607973 76.99775266 54.74639084 75.1371479 54.75268745 C72.19024391 54.76180697 69.24397491 54.751564 66.29710388 54.73606873 C57.92065401 54.69599183 49.54425441 54.69476687 41.16772461 54.69702148 C36.03954184 54.69707261 30.91170199 54.67789279 25.7836132 54.64768791 C22.88412659 54.6368694 19.98529618 54.64898896 17.08583069 54.66151428 C15.30273797 54.6526086 13.51965058 54.64253377 11.73657227 54.63110352 C10.93378342 54.64084702 10.13099457 54.65059052 9.30387878 54.66062927 C4.07373171 54.59383095 1.12554895 53.5716239 -3.03515625 50.1328125 C-3.71578125 49.2665625 -4.39640625 48.4003125 -5.09765625 47.5078125 C-7.38863238 44.69951918 -8.58638299 44.17281222 -12.03515625 43.1328125 C-14.77625027 42.93264823 -17.41248147 42.82865534 -20.15234375 42.83203125 C-20.92772491 42.82774612 -21.70310608 42.823461 -22.50198364 42.81904602 C-24.137543 42.81332009 -25.77312781 42.81278963 -27.40869141 42.81713867 C-29.89530476 42.82029366 -32.38072144 42.79683638 -34.8671875 42.77148438 C-36.4622381 42.76921051 -38.05729186 42.76850829 -39.65234375 42.76953125 C-40.38798553 42.7603215 -41.12362732 42.75111176 -41.88156128 42.74162292 C-46.96247849 42.78657232 -50.5121803 43.78056186 -55.03515625 46.1328125 C-56.45283996 47.86067514 -56.45283996 47.86067514 -56.97265625 49.8203125 C-57.49859375 51.46 -57.49859375 51.46 -58.03515625 53.1328125 C-59.22265625 51.4453125 -59.22265625 51.4453125 -60.03515625 49.1328125 C-59.03515625 47.46614583 -58.03515625 45.79947917 -57.03515625 44.1328125 C-57.83512282 41.94882615 -57.83512282 41.94882615 -59.03515625 40.1328125 C-58.70515625 39.4728125 -58.37515625 38.8128125 -58.03515625 38.1328125 C-59.35515625 37.8028125 -60.67515625 37.4728125 -62.03515625 37.1328125 C-62.36515625 39.4428125 -62.69515625 41.7528125 -63.03515625 44.1328125 C-65.368104 44.17522973 -67.70218192 44.17374187 -70.03515625 44.1328125 C-70.36515625 43.8028125 -70.69515625 43.4728125 -71.03515625 43.1328125 C-72.22283898 44.32049523 -73.39589187 45.52360942 -74.53515625 46.7578125 C-76.03515625 48.1328125 -76.03515625 48.1328125 -78.03515625 48.1328125 C-81.5513079 53.70804609 -81.55850976 58.73772929 -81.6953125 65.125 C-81.73008194 66.20817505 -81.76485138 67.2913501 -81.80067444 68.40734863 C-81.91194069 71.94058259 -82.00456709 75.47405742 -82.09765625 79.0078125 C-82.2093765 82.66424003 -82.3263641 86.32047257 -82.44396973 89.97671509 C-82.52314799 92.43986438 -82.6008603 94.90306123 -82.67712402 97.36630249 C-83.03518594 108.75428179 -83.56453959 120.13008554 -84.16015625 131.5078125 C-84.20471954 132.36936951 -84.24928284 133.23092651 -84.29519653 134.11859131 C-84.53683533 138.79027474 -84.78316607 143.46167624 -85.03515625 148.1328125 C-85.36515625 148.1328125 -85.69515625 148.1328125 -86.03515625 148.1328125 C-86.08198849 137.8385866 -86.11727903 127.54438702 -86.13878059 117.25007534 C-86.14911259 112.46737784 -86.16307196 107.68475447 -86.18603516 102.90209961 C-86.50760462 34.0490322 -86.50760462 34.0490322 -69.78515625 16.3828125 C-58.0545373 5.27887103 -44.11026575 1.48100522 -28.28735352 0.57861328 C-27.18664064 0.51544765 -27.18664064 0.51544765 -26.06369114 0.45100594 C-17.37756844 -0.00686253 -8.6958778 -0.01192029 0 0 Z " fill="#303031" transform="translate(107.03515625,20.8671875)"/>
<path d="M0 0 C0.77916779 -0.00570007 1.55833557 -0.01140015 2.3611145 -0.01727295 C4.00684256 -0.02670146 5.65258931 -0.03324838 7.29833984 -0.03710938 C9.80469963 -0.04681454 12.31023872 -0.07785707 14.81640625 -0.109375 C16.41926599 -0.11590592 18.02213156 -0.12115604 19.625 -0.125 C20.36894012 -0.1373468 21.11288025 -0.1496936 21.87936401 -0.16241455 C27.26561087 -0.1395632 31.58651226 0.85031156 35.484375 4.73828125 C36.02191406 5.49431641 36.02191406 5.49431641 36.5703125 6.265625 C39.24322863 9.5918746 39.24322863 9.5918746 42.9453125 11.203125 C45.82554692 11.39755584 48.60997862 11.48344265 51.48999023 11.47436523 C52.35061066 11.47959198 53.21123108 11.48481873 54.09793091 11.49020386 C55.96454993 11.50043632 57.83119742 11.50622295 59.69784355 11.50808525 C62.65270692 11.51174825 65.60723448 11.52847279 68.56202698 11.54884338 C76.96226766 11.60426482 85.36255764 11.63495357 93.76293945 11.65942383 C98.90290771 11.675299 104.04263718 11.70551673 109.18248177 11.74418831 C111.14045744 11.75583774 113.09847581 11.76176865 115.05648613 11.76186943 C117.79499115 11.7620615 120.53283751 11.78032871 123.27124023 11.80249023 C124.0791954 11.79791306 124.88715057 11.79333588 125.71958923 11.78862 C131.58263145 11.86404561 134.83553807 13.09335057 138.9453125 17.203125 C139.20410156 19.27856445 139.20410156 19.27856445 139.2109375 21.81640625 C139.21351563 22.73486328 139.21609375 23.65332031 139.21875 24.59960938 C139.21101562 25.56189453 139.20328125 26.52417969 139.1953125 27.515625 C139.20304688 28.46630859 139.21078125 29.41699219 139.21875 30.39648438 C139.20539069 35.17577666 139.01774409 38.81976771 136.9453125 43.203125 C136.9453125 44.523125 136.9453125 45.843125 136.9453125 47.203125 C136.6503074 48.79404535 136.31590745 50.37809645 135.9453125 51.953125 C135.7596875 52.75234375 135.5740625 53.5515625 135.3828125 54.375 C135.2384375 54.97828125 135.0940625 55.5815625 134.9453125 56.203125 C134.6153125 55.213125 134.2853125 54.223125 133.9453125 53.203125 C132.6253125 54.193125 131.3053125 55.183125 129.9453125 56.203125 C125.94753894 54.03290507 123.14665407 51.40446657 119.9453125 48.203125 C119.2853125 48.203125 118.6253125 48.203125 117.9453125 48.203125 C116.9553125 48.203125 115.9653125 48.203125 114.9453125 48.203125 C113.9553125 48.533125 112.9653125 48.863125 111.9453125 49.203125 C111.2853125 48.543125 110.6253125 47.883125 109.9453125 47.203125 C108.9553125 47.698125 108.9553125 47.698125 107.9453125 48.203125 C107.2853125 47.543125 106.6253125 46.883125 105.9453125 46.203125 C105.2853125 45.873125 104.6253125 45.543125 103.9453125 45.203125 C103.2853125 46.193125 102.6253125 47.183125 101.9453125 48.203125 C100.4603125 47.708125 100.4603125 47.708125 98.9453125 47.203125 C96.85637215 47.72973218 96.85637215 47.72973218 94.7578125 48.640625 C94.04238281 48.92808594 93.32695312 49.21554688 92.58984375 49.51171875 C91.77580078 49.85396484 91.77580078 49.85396484 90.9453125 50.203125 C90.6153125 49.213125 90.2853125 48.223125 89.9453125 47.203125 C88.9553125 47.698125 88.9553125 47.698125 87.9453125 48.203125 C87.2853125 47.213125 86.6253125 46.223125 85.9453125 45.203125 C84.9553125 46.193125 84.9553125 46.193125 83.9453125 47.203125 C80.88414915 48.32555156 79.03004472 48.09869242 75.9453125 47.203125 C74.9553125 47.203125 73.9653125 47.203125 72.9453125 47.203125 C72.2853125 46.543125 71.6253125 45.883125 70.9453125 45.203125 C68.89134524 45.61242486 68.89134524 45.61242486 66.9453125 46.203125 C66.6153125 45.873125 66.2853125 45.543125 65.9453125 45.203125 C65.2853125 46.523125 64.6253125 47.843125 63.9453125 49.203125 C63.2853125 48.543125 62.6253125 47.883125 61.9453125 47.203125 C61.0171875 47.533125 60.0890625 47.863125 59.1328125 48.203125 C55.83935028 49.23636805 53.36782441 49.203125 49.9453125 49.203125 C49.6153125 48.543125 49.2853125 47.883125 48.9453125 47.203125 C47.9553125 47.203125 46.9653125 47.203125 45.9453125 47.203125 C44.24812123 46.25585546 42.57596014 45.26084239 40.9453125 44.203125 C40.4503125 45.193125 40.4503125 45.193125 39.9453125 46.203125 C38.9553125 45.873125 37.9653125 45.543125 36.9453125 45.203125 C36.2853125 45.863125 35.6253125 46.523125 34.9453125 47.203125 C32.0078125 48.453125 32.0078125 48.453125 28.9453125 49.203125 C27.9553125 48.543125 26.9653125 47.883125 25.9453125 47.203125 C25.4503125 48.193125 25.4503125 48.193125 24.9453125 49.203125 C23.9553125 48.543125 22.9653125 47.883125 21.9453125 47.203125 C21.4503125 48.193125 21.4503125 48.193125 20.9453125 49.203125 C20.2853125 48.543125 19.6253125 47.883125 18.9453125 47.203125 C18.3265625 47.698125 17.7078125 48.193125 17.0703125 48.703125 C14.9453125 50.203125 14.9453125 50.203125 12.9453125 50.203125 C12.4503125 49.708125 12.4503125 49.708125 11.9453125 49.203125 C10.9553125 48.543125 9.9653125 47.883125 8.9453125 47.203125 C8.1821875 47.698125 7.4190625 48.193125 6.6328125 48.703125 C3.9453125 50.203125 3.9453125 50.203125 0.9453125 50.203125 C-2.15127358 52.92207863 -4.49978477 55.37567212 -6.0546875 59.203125 C-6.6115625 60.564375 -6.6115625 60.564375 -7.1796875 61.953125 C-7.6128125 63.066875 -7.6128125 63.066875 -8.0546875 64.203125 C-10.88843631 60.99975678 -11.5752412 58.42225247 -12.0546875 54.203125 C-12.7146875 54.203125 -13.3746875 54.203125 -14.0546875 54.203125 C-14.7146875 74.663125 -15.3746875 95.123125 -16.0546875 116.203125 C-16.3846875 116.203125 -16.7146875 116.203125 -17.0546875 116.203125 C-18.06564215 106.9693257 -18.38929596 97.73271697 -18.6171875 88.453125 C-18.63736938 87.64351318 -18.65755127 86.83390137 -18.67834473 85.99975586 C-19.04368184 70.80788211 -19.21849978 55.61282085 -19.28585815 40.41687012 C-19.29836994 37.94914761 -19.31585413 35.4814451 -19.33840942 33.01379395 C-19.36831109 29.52469624 -19.37819075 26.03608649 -19.3828125 22.546875 C-19.39511398 21.50364075 -19.40741547 20.46040649 -19.42008972 19.38555908 C-19.40237859 13.53684175 -18.89184385 9.35812903 -16.0546875 4.203125 C-11.42063477 -0.28144215 -6.14521225 0.03491551 0 0 Z " fill="#52A6E6" transform="translate(67.0546875,62.796875)"/>
<path d="M0 0 C0.33 0 0.66 0 1 0 C1.04637914 12.00478253 1.08189761 24.00954368 1.10362434 36.01439762 C1.11405307 41.58897635 1.12819573 47.1634937 1.15087891 52.73803711 C1.17263963 58.11967508 1.18457549 63.50125408 1.18975449 68.88293266 C1.19344443 70.93418748 1.20064995 72.98543913 1.21146011 75.03666878 C1.22601783 77.91392063 1.22797614 80.79093002 1.22705078 83.66821289 C1.23424133 84.51266464 1.24143188 85.35711639 1.24884033 86.22715759 C1.23009358 91.62848924 1.08008853 97.27941501 -2.33203125 101.7421875 C-7.39599484 105.61698814 -11.40755719 106.12299215 -17.6413269 106.13371277 C-18.76558075 106.13797775 -19.88983459 106.14224274 -21.04815674 106.14663696 C-22.27218201 106.14618378 -23.49620728 106.14573059 -24.75732422 106.14526367 C-26.70202103 106.15030159 -26.70202103 106.15030159 -28.68600464 106.15544128 C-32.23565687 106.16426012 -35.78528498 106.1666185 -39.33494711 106.16725707 C-41.55470244 106.16796875 -43.77445167 106.17010532 -45.99420547 106.17275429 C-53.74402505 106.18200058 -61.49382744 106.18609006 -69.24365234 106.18530273 C-76.45828951 106.18470207 -83.67285188 106.19525342 -90.88747013 106.2110464 C-97.08975572 106.22413771 -103.29201692 106.22948597 -109.49431622 106.22884732 C-113.19505834 106.22859281 -116.89573394 106.23141815 -120.59646225 106.24202538 C-124.72565547 106.25353807 -128.85468185 106.2489498 -132.98388672 106.24291992 C-134.20386353 106.24853943 -135.42384033 106.25415894 -136.68078613 106.25994873 C-149.97064147 106.21061298 -149.97064147 106.21061298 -155.3125 102.3125 C-159.85090616 96.09320267 -159.26716785 88.74057435 -159.1953125 81.37890625 C-159.1924826 80.27900864 -159.18965271 79.17911102 -159.18673706 78.04588318 C-159.1755898 74.55130897 -159.15049498 71.05699606 -159.125 67.5625 C-159.11496316 65.18555059 -159.10583854 62.80859714 -159.09765625 60.43164062 C-159.07566831 54.6210054 -159.0422451 48.81052138 -159 43 C-158.67 43 -158.34 43 -158 43 C-157.97494385 44.10811035 -157.9498877 45.2162207 -157.92407227 46.35791016 C-157.82868081 50.53654214 -157.72880247 54.71505767 -157.62768555 58.89355469 C-157.58482736 60.68942509 -157.54312691 62.48532355 -157.50268555 64.28125 C-158.3202943 81.63877961 -158.3202943 81.63877961 -155 98 C-154.67 92.72 -154.34 87.44 -154 82 C-153.34 82.33 -152.68 82.66 -152 83 C-152 82.01 -152 81.02 -152 80 C-151.34 80 -150.68 80 -150 80 C-149.67 80.66 -149.34 81.32 -149 82 C-145.87544942 80.35820641 -145.87544942 80.35820641 -145.26953125 77.8359375 C-145.11871094 77.02382812 -144.96789062 76.21171875 -144.8125 75.375 C-144.65394531 74.55773437 -144.49539062 73.74046875 -144.33203125 72.8984375 C-144.22246094 72.27195312 -144.11289063 71.64546875 -144 71 C-142.02 70.505 -142.02 70.505 -140 70 C-140.66 69.34 -141.32 68.68 -142 68 C-141.05125 67.71125 -140.1025 67.4225 -139.125 67.125 C-135.94788422 66.23174891 -135.94788422 66.23174891 -134 64 C-133.401875 64.495 -132.80375 64.99 -132.1875 65.5 C-130.02970006 67.28276418 -130.02970006 67.28276418 -127 67 C-126.505 66.175 -126.01 65.35 -125.5 64.5 C-125.005 63.675 -124.51 62.85 -124 62 C-123.01 62 -122.02 62 -121 62 C-121.33 63.65 -121.66 65.3 -122 67 C-119.58380177 67.25030977 -119.58380177 67.25030977 -117 67 C-116.01 65.515 -116.01 65.515 -115 64 C-114.01 65.485 -114.01 65.485 -113 67 C-111.88625 66.835 -110.7725 66.67 -109.625 66.5 C-106 66 -106 66 -104 66 C-103.34 65.34 -102.68 64.68 -102 64 C-101.01 64.99 -101.01 64.99 -100 66 C-99.34 66 -98.68 66 -98 66 C-97.34 65.34 -96.68 64.68 -96 64 C-95.34 64.66 -94.68 65.32 -94 66 C-93.34 66 -92.68 66 -92 66 C-91.34 65.34 -90.68 64.68 -90 64 C-89.34 64.66 -88.68 65.32 -88 66 C-86.33499557 66.34153937 -84.66821323 66.67449498 -83 67 C-81.515 67.99 -81.515 67.99 -80 69 C-77.98045559 68.66179847 -77.98045559 68.66179847 -76 68 C-73 68 -73 68 -70.5625 68.5625 C-67.91116318 69.01516726 -66.53094127 68.75928238 -64 68 C-63.01 68 -62.02 68 -61 68 C-60.34 67.67 -59.68 67.34 -59 67 C-59.33 65.68 -59.66 64.36 -60 63 C-57 64 -57 64 -55 66 C-54.38125 65.79375 -53.7625 65.5875 -53.125 65.375 C-52.42375 65.25125 -51.7225 65.1275 -51 65 C-48.75 66.9375 -48.75 66.9375 -47 69 C-46.34 68.34 -45.68 67.68 -45 67 C-44.34 67 -43.68 67 -43 67 C-42.34 68.65 -41.68 70.3 -41 72 C-40.01 71.67 -39.02 71.34 -38 71 C-37.64587656 69.67203709 -37.31478446 68.33783393 -37 67 C-35.4375 65.25 -35.4375 65.25 -34 64 C-33.01 65.485 -33.01 65.485 -32 67 C-31.01 65.02 -31.01 65.02 -30 63 C-29.34 64.98 -28.68 66.96 -28 69 C-27.401875 68.690625 -26.80375 68.38125 -26.1875 68.0625 C-24 67 -24 67 -21 66 C-15.15068719 68.09319345 -10.76775683 74.08948634 -8.0625 79.5 C-7.711875 80.325 -7.36125 81.15 -7 82 C-4.90649311 78.5980513 -4.82057837 75.94727588 -5 72 C-2.75393573 73.77444972 -2.04918998 74.58352485 -1.70703125 77.48046875 C-1.74183594 78.37378906 -1.77664062 79.26710938 -1.8125 80.1875 C-1.85310547 81.53908203 -1.85310547 81.53908203 -1.89453125 82.91796875 C-1.92933594 83.60503906 -1.96414062 84.29210937 -2 85 C-1.34426635 56.66640272 -0.67797076 28.33307396 0 0 Z " fill="#4D7AAC" transform="translate(207,86)"/>
<path d="M0 0 C0.33 0 0.66 0 1 0 C1.07588693 6.656827 1.12853061 13.31354303 1.16479492 19.97070312 C1.17990804 22.23669605 1.20039913 24.5026596 1.22631836 26.76855469 C1.26259062 30.02025589 1.2797009 33.27157136 1.29296875 36.5234375 C1.30845261 37.54118256 1.32393646 38.55892761 1.33988953 39.60751343 C1.34022942 41.01874985 1.34022942 41.01874985 1.34057617 42.45849609 C1.35056892 43.70425919 1.35056892 43.70425919 1.36076355 44.97518921 C1.24171158 45.64337677 1.12265961 46.31156433 1 47 C0.01 47.66 -0.98 48.32 -2 49 C-2.34541851 51.33157492 -2.67794257 53.66508361 -3 56 C-4.5625 58.4375 -4.5625 58.4375 -6 60 C-8.2873727 58.8986724 -10.41458797 57.73709056 -12.5625 56.375 C-14.96905979 54.75433941 -14.96905979 54.75433941 -18 55 C-18.66 54.01 -19.32 53.02 -20 52 C-21.31337396 50.9739266 -22.64664105 49.97272675 -24 49 C-24.66 48.34 -25.32 47.68 -26 47 C-26.99 47 -27.98 47 -29 47 C-29.99 47.99 -29.99 47.99 -31 49 C-31.66 48.01 -32.32 47.02 -33 46 C-33.99 46 -34.98 46 -36 46 C-36.99 46.99 -36.99 46.99 -38 48 C-39.32 47.34 -40.64 46.68 -42 46 C-42.99 46.66 -43.98 47.32 -45 48 C-45.66 47.34 -46.32 46.68 -47 46 C-47.18490007 48.32357511 -47.18490007 48.32357511 -45 51 C-45.99 51.99 -45.99 51.99 -47 53 C-48.485 52.01 -48.485 52.01 -50 51 C-50.99 51.495 -50.99 51.495 -52 52 C-52 51.01 -52 50.02 -52 49 C-52.66 49 -53.32 49 -54 49 C-53.505 48.01 -53.505 48.01 -53 47 C-53.33 46.67 -53.66 46.34 -54 46 C-55.98 46.66 -57.96 47.32 -60 48 C-60 47.01 -60 46.02 -60 45 C-61.485 45.495 -61.485 45.495 -63 46 C-63.33 48.31 -63.66 50.62 -64 53 C-65.32 51.68 -66.64 50.36 -68 49 C-68.495 49.99 -68.495 49.99 -69 51 C-69.309375 50.360625 -69.61875 49.72125 -69.9375 49.0625 C-70.8345163 47.06389179 -70.8345163 47.06389179 -72 46 C-72.33 46.99 -72.66 47.98 -73 49 C-73.96873032 50.35622245 -74.96434215 51.69417053 -76 53 C-77.96252615 51.03747385 -78.80898268 49.46143579 -80 47 C-80.33 46.67 -80.66 46.34 -81 46 C-83.51083114 47.25541557 -83.87125446 48.50063488 -85 51 C-85.99 48.525 -85.99 48.525 -87 46 C-88.32 46 -89.64 46 -91 46 C-91.33 47.65 -91.66 49.3 -92 51 C-92.99 51 -93.98 51 -95 51 C-95.144375 50.360625 -95.28875 49.72125 -95.4375 49.0625 C-95.81007181 47.02454854 -95.81007181 47.02454854 -97 46 C-97.99 46.495 -97.99 46.495 -99 47 C-98.79375 47.61875 -98.5875 48.2375 -98.375 48.875 C-98.25125 49.57625 -98.1275 50.2775 -98 51 C-98.66 51.66 -99.32 52.32 -100 53 C-100.4125 52.030625 -100.825 51.06125 -101.25 50.0625 C-102.64899168 46.87739901 -102.64899168 46.87739901 -105.1875 46.125 C-105.785625 46.08375 -106.38375 46.0425 -107 46 C-107.99 47.98 -108.98 49.96 -110 52 C-110.99 51.67 -111.98 51.34 -113 51 C-114.1875 48.4375 -114.1875 48.4375 -115 46 C-117.51083114 47.25541557 -117.87125446 48.50063488 -119 51 C-119.66 51 -120.32 51 -121 51 C-121.66 49.35 -122.32 47.7 -123 46 C-125.51083114 47.25541557 -125.87125446 48.50063488 -127 51 C-127.99 51 -128.98 51 -130 51 C-131.68236471 51.62599617 -133.3523962 52.28752268 -135 53 C-135.495 52.505 -135.495 52.505 -136 52 C-136.433125 52.433125 -136.86625 52.86625 -137.3125 53.3125 C-138.3233998 54.3233998 -139.35869466 55.3119084 -140.4375 56.25 C-142.79802124 58.89378379 -144.30031612 61.89368119 -146 65 C-147.98 64.67 -149.96 64.34 -152 64 C-152.495 62.515 -152.495 62.515 -153 61 C-153.33 61 -153.66 61 -154 61 C-154 51.76 -154 42.52 -154 33 C-153.01 33 -152.02 33 -151 33 C-150.566875 34.36125 -150.566875 34.36125 -150.125 35.75 C-149.23468224 38.32202908 -148.28505587 40.61346766 -147 43 C-146.67 40.69 -146.34 38.38 -146 36 C-144.515 35.505 -144.515 35.505 -143 35 C-142.525625 34.360625 -142.05125 33.72125 -141.5625 33.0625 C-139.82991987 30.77549423 -138.67522744 29.97280998 -136 29 C-134.68 29 -133.36 29 -132 29 C-131.34 28.34 -130.68 27.68 -130 27 C-129.34 27.66 -128.68 28.32 -128 29 C-127.01 29 -126.02 29 -125 29 C-124.01 29 -123.02 29 -122 29 C-121.34 28.34 -120.68 27.68 -120 27 C-119.34 27.66 -118.68 28.32 -118 29 C-115.57061311 28.64767793 -115.57061311 28.64767793 -113 28 C-111.68 28 -110.36 28 -109 28 C-106.12190346 27.16055517 -103.53899481 26.31033034 -100.9375 24.8125 C-98.30921506 23.71031599 -96.72376584 24.31905854 -94 25 C-92.68 25 -91.36 25 -90 25 C-89.01 27.475 -89.01 27.475 -88 30 C-87.401875 29.67 -86.80375 29.34 -86.1875 29 C-84 28 -84 28 -81 28 C-80.34 27.34 -79.68 26.68 -79 26 C-77.33333333 26 -75.66666667 26 -74 26 C-71.74867483 25.08431094 -71.74867483 25.08431094 -70 24 C-69.505 24.99 -69.505 24.99 -69 26 C-68.0409375 25.7525 -68.0409375 25.7525 -67.0625 25.5 C-63.64516291 24.94206741 -60.44070273 24.96966178 -56.98828125 25.0625 C-54.92404786 25.13656189 -54.92404786 25.13656189 -53 24 C-51.33333333 25.66666667 -49.66666667 27.33333333 -48 29 C-47.01 29 -46.02 29 -45 29 C-44.34 28.34 -43.68 27.68 -43 27 C-41.515 27.495 -41.515 27.495 -40 28 C-39.505 26.515 -39.505 26.515 -39 25 C-38.01 24.505 -38.01 24.505 -37 24 C-36.505 24.99 -36.505 24.99 -36 26 C-35.38125 25.79375 -34.7625 25.5875 -34.125 25.375 C-33.42375 25.25125 -32.7225 25.1275 -32 25 C-31.01 25.99 -31.01 25.99 -30 27 C-27.33871316 28.54526333 -26.15084005 29 -23 29 C-22.01 28.34 -21.02 27.68 -20 27 C-18.828125 28.5625 -17.65625 30.125 -16.484375 31.6875 C-14.8308053 33.44160248 -14.8308053 33.44160248 -11 33 C-10.34 33.99 -9.68 34.98 -9 36 C-6.9837767 35.28436734 -6.9837767 35.28436734 -5 34 C-4.03430669 31.50529228 -4 29.70254461 -4 27 C-3.01 26.505 -3.01 26.505 -2 26 C-2.20625 25.2575 -2.4125 24.515 -2.625 23.75 C-3 21 -3 21 -2.02734375 19.234375 C-0.64191909 16.22120807 -0.84290798 13.79936969 -0.9375 10.5 C-1.12093836 3.54529342 -1.12093836 3.54529342 0 0 Z " fill="#4B95D3" transform="translate(206,82)"/>
<path d="M0 0 C1.32 0.33 2.64 0.66 4 1 C4 1.99 4 2.98 4 4 C4.66 3.34 5.32 2.68 6 2 C6.1875 4.75 6.1875 4.75 6 8 C5.50750259 8.54733795 5.01500519 9.0946759 4.50758362 9.65859985 C2.2495744 13.16547207 2.62322064 16.67769582 2.69116211 20.71240234 C2.69393661 21.59092361 2.69671112 22.46944489 2.6995697 23.37458801 C2.71185448 26.27862414 2.74494131 29.18206241 2.77734375 32.0859375 C2.7880213 34.10608146 2.79707754 36.12623458 2.80458069 38.14639282 C2.82737776 43.46741844 2.86641807 48.78818291 2.9105835 54.10906982 C2.98071588 62.61862423 3.03609191 71.12816521 3.07293892 79.63792801 C3.08961802 82.60823895 3.11918163 85.57823419 3.14964294 88.5484314 C3.16010744 90.37522083 3.17006769 92.20201325 3.17944336 94.02880859 C3.19134705 94.85186996 3.20325073 95.67493134 3.21551514 96.52293396 C3.22483288 101.03541179 2.9595514 104.83229607 1 109 C-2 110 -2 110 -4 110 C-4.33 110.99 -4.66 111.98 -5 113 C-5.66 112.67 -6.32 112.34 -7 112 C-7.33 113.65 -7.66 115.3 -8 117 C-8.66 117 -9.32 117 -10 117 C-9.34 118.32 -8.68 119.64 -8 121 C-8.99 121.99 -8.99 121.99 -10 123 C-15.56818182 122.43181818 -15.56818182 122.43181818 -17 121 C-17.020625 122.27875 -17.04125 123.5575 -17.0625 124.875 C-17.07410156 125.59429687 -17.08570313 126.31359375 -17.09765625 127.0546875 C-17.12649242 129.08185404 -17.12649242 129.08185404 -16 131 C-15.89624207 132.4987257 -15.81649295 133.99915919 -15.75 135.5 C-15.30534187 140.68516604 -13.57632956 144.46107568 -11.05859375 148.96875 C-10 151 -10 151 -10 153 C-9.34 153 -8.68 153 -8 153 C-6.9103488 154.1868363 -5.87751435 155.42619706 -4.875 156.6875 C-1.79944892 160.3381016 1.23643675 162.69424886 5.3984375 164.9921875 C7 166 7 166 8 168 C10.53260349 168.69598264 13.07536249 169.0514458 15.6690979 169.46156311 C17.76613529 169.80054704 19.86087087 170.15443484 21.95175171 170.52952576 C30.12659088 171.93314413 38.00700242 172.25035102 46.2890625 172.16015625 C48.28447619 172.15221041 50.27988992 172.14426949 52.27530479 172.13662624 C55.02742432 172.12363322 57.77943719 172.10140119 60.53149414 172.07904053 C65.39084848 172.04064738 70.25025331 172.01263666 75.10971069 171.99131775 C77.68837648 171.979071 80.26702355 171.96147757 82.84561157 171.93800354 C84.58419937 171.92820717 84.58419937 171.92820717 86.35791016 171.91821289 C87.37793121 171.90995987 88.39795227 171.90170685 89.44888306 171.89320374 C92 172 92 172 95 173 C97.06673906 173.01592966 99.13426083 172.96615799 101.19921875 172.87890625 C102.40771484 172.83056641 103.61621094 172.78222656 104.86132812 172.73242188 C106.12396484 172.67634766 107.38660156 172.62027344 108.6875 172.5625 C109.96173828 172.51029297 111.23597656 172.45808594 112.54882812 172.40429688 C115.69946039 172.27449555 118.84978577 172.1395244 122 172 C122 172.66 122 173.32 122 174 C121.44538086 174.02505615 120.89076172 174.0501123 120.31933594 174.07592773 C117.79601157 174.19227927 115.27302464 174.31482754 112.75 174.4375 C111.87730469 174.47681641 111.00460938 174.51613281 110.10546875 174.55664062 C108.83896484 174.61948242 108.83896484 174.61948242 107.546875 174.68359375 C106.77182617 174.72025146 105.99677734 174.75690918 105.19824219 174.79467773 C103.05873409 174.92332945 103.05873409 174.92332945 101.29968262 175.50177002 C98.17804614 176.17807764 95.20096444 176.15199626 92.00683594 176.17700195 C91.31018829 176.18357315 90.61354065 176.19014435 89.89578247 176.19691467 C87.59197868 176.21660395 85.28824039 176.22830876 82.984375 176.23828125 C82.19160408 176.24235678 81.39883316 176.2464323 80.58203888 176.25063133 C76.37500777 176.27148681 72.16800909 176.28578328 67.9609375 176.29516602 C63.65774013 176.30614922 59.35507154 176.3404551 55.05205917 176.38033772 C51.70928125 176.40676553 48.36662344 176.41488136 45.02375031 176.41844749 C43.44043715 176.42325687 41.85712722 176.43470475 40.27391815 176.45348549 C21.78948855 176.65889036 6.10871598 173.31923268 -7.7109375 160.3125 C-20.83783928 147.05119308 -23.28407248 131.22692956 -23.22460938 113.328125 C-23.21840576 112.43029297 -23.21220215 111.53246094 -23.20581055 110.60742188 C-23.18768258 107.90224609 -23.18530068 105.19741748 -23.18554688 102.4921875 C-23.16736083 93.47743836 -22.90587525 84.54208878 -22.26977539 75.546875 C-21.88954207 69.6842097 -21.74506705 63.81307755 -21.5703125 57.94140625 C-21.4961869 55.57356479 -21.42196693 53.20572628 -21.34765625 50.83789062 C-21.23381794 47.18249817 -21.12405172 43.52718706 -21.02587891 39.87133789 C-20.92810063 36.2900296 -20.81314706 32.70960357 -20.6953125 29.12890625 C-20.65762253 27.50209679 -20.65762253 27.50209679 -20.61917114 25.84242249 C-20.39039997 19.40959489 -19.44497595 13.96859692 -17 8 C-15.68 8 -14.36 8 -13 8 C-12.67 6.35 -12.34 4.7 -12 3 C-9 4 -9 4 -8 6 C-7.030625 5.505 -6.06125 5.01 -5.0625 4.5 C-2 3 -2 3 -1 3 C-0.67 2.01 -0.34 1.02 0 0 Z " fill="#202020" transform="translate(45,58)"/>
<path d="M0 0 C0.99 0.66 1.98 1.32 3 2 C2.67 3.65 2.34 5.3 2 7 C2.66 6.01 3.32 5.02 4 4 C6.625 2.8125 6.625 2.8125 9 2 C9 2.99 9 3.98 9 5 C10.32 4.67 11.64 4.34 13 4 C13 3.34 13 2.68 13 2 C13.99 2.33 14.98 2.66 16 3 C15 6 15 6 13 7 C15.31 7.33 17.62 7.66 20 8 C20.268125 7.195625 20.53625 6.39125 20.8125 5.5625 C21.204375 4.716875 21.59625 3.87125 22 3 C22.99 2.67 23.98 2.34 25 2 C25 2.99 25 3.98 25 5 C26.11375 4.649375 27.2275 4.29875 28.375 3.9375 C32 3 32 3 34 4 C35.125 6.0625 35.125 6.0625 36 8 C36.33 8 36.66 8 37 8 C39.10323693 17.9473847 40.4786307 27.61613271 40.90283203 37.80175781 C41.00837551 40.18948015 41.14090042 42.57478715 41.27734375 44.9609375 C41.82021502 54.65362382 42.14469171 64.28957866 42 74 C40 73 40 73 39 70 C39 66.33333333 39 62.66666667 39 59 C38.01 59.99 37.02 60.98 36 62 C36 60.02 36 58.04 36 56 C35.34 55.67 34.68 55.34 34 55 C33.01 57.31 32.02 59.62 31 62 C30.855625 61.401875 30.71125 60.80375 30.5625 60.1875 C30.1127561 58.43849596 29.57107659 56.71322977 29 55 C29.66 54.01 30.32 53.02 31 52 C30.195625 51.4225 29.39125 50.845 28.5625 50.25 C24.87996683 47.01655624 24.94764958 43.74582964 24.125 39.0625 C23.35939985 35.15390976 22.35401797 32.27515543 20 29 C19.505 28.01 19.505 28.01 19 27 C18.01 28.485 18.01 28.485 17 30 C16.38151042 28.27473958 15.76302083 26.54947917 15.14453125 24.82421875 C13.47309416 22.16018762 11.85181661 21.35360549 9 20 C6.04675705 19.72128513 3.30753382 19.60281021 0.35766602 19.63110352 C-0.50149414 19.62733704 -1.3606543 19.62357056 -2.24584961 19.61968994 C-4.10645394 19.61326723 -5.96709109 19.61357834 -7.82769585 19.61987495 C-10.77459984 19.62899447 -13.72086884 19.6187515 -16.66773987 19.60325623 C-25.04418974 19.56317933 -33.42058934 19.56195437 -41.79711914 19.56420898 C-46.92530191 19.56426011 -52.05314176 19.54508029 -57.18123055 19.51487541 C-60.08071716 19.5040569 -62.97954757 19.51617646 -65.87901306 19.52870178 C-67.66210578 19.5197961 -69.44519317 19.50972127 -71.22827148 19.49829102 C-72.03106033 19.50803452 -72.83384918 19.51777802 -73.66096497 19.52781677 C-78.89899453 19.46091778 -81.82026153 18.42117505 -86 15 C-88.65821394 12.1262552 -90.42002201 9.91485143 -91 6 C-87.14355388 4.71451796 -84.71815124 5.54519526 -80.875 6.5625 C-78.8339736 7.11361481 -78.8339736 7.11361481 -76 7 C-75.34 7 -74.68 7 -74 7 C-73.34 6.34 -72.68 5.68 -72 5 C-71.34 5.66 -70.68 6.32 -70 7 C-68.03451466 7.42618245 -68.03451466 7.42618245 -65.8125 7.5625 C-64.61367187 7.67464844 -64.61367187 7.67464844 -63.390625 7.7890625 C-62.60171875 7.85867187 -61.8128125 7.92828125 -61 8 C-54.25 8.75 -54.25 8.75 -52 11 C-51.34 10.34 -50.68 9.68 -50 9 C-49.34 9 -48.68 9 -48 9 C-47.34 9.66 -46.68 10.32 -46 11 C-45.34 10.34 -44.68 9.68 -44 9 C-43.0925 9.165 -42.185 9.33 -41.25 9.5 C-38.04952248 10.25787405 -38.04952248 10.25787405 -35.33984375 9.0390625 C-31.20731153 7.75338581 -27.60400778 7.77872804 -23.3125 7.875 C-22.17458008 7.88853516 -22.17458008 7.88853516 -21.01367188 7.90234375 C-19.00900333 7.92711459 -17.00447861 7.96291818 -15 8 C-14.01 8 -13.02 8 -12 8 C-10.33333333 8 -8.66666667 8 -7 8 C-6.67 7.01 -6.34 6.02 -6 5 C-5.34 4.67 -4.68 4.34 -4 4 C-3.34 3.01 -2.68 2.02 -2 1 C-1.01 1.495 -1.01 1.495 0 2 C0 1.34 0 0.68 0 0 Z M16 1 C16.99 1.495 16.99 1.495 18 2 C17.67 2.66 17.34 3.32 17 4 C16.67 3.01 16.34 2.02 16 1 Z " fill="#2B2B2B" transform="translate(190,56)"/>
<path d="M0 0 C0.81094116 -0.00630432 1.62188232 -0.01260864 2.45739746 -0.019104 C3.76529236 -0.01303131 3.76529236 -0.01303131 5.09960938 -0.00683594 C6.44762634 -0.00970612 6.44762634 -0.00970612 7.82287598 -0.01263428 C9.72257772 -0.01399504 11.62228879 -0.01030621 13.52197266 -0.00195312 C16.43217833 0.00874795 19.34176669 -0.00185208 22.25195312 -0.01464844 C24.09700657 -0.01332682 25.94205964 -0.01076439 27.78710938 -0.00683594 C28.65903931 -0.0108844 29.53096924 -0.01493286 30.42932129 -0.019104 C31.24026245 -0.01279968 32.05120361 -0.00649536 32.88671875 0 C33.95569397 0.00238678 33.95569397 0.00238678 35.04626465 0.00482178 C36.94335938 0.25878906 36.94335938 0.25878906 39.94335938 2.25878906 C39.94335938 2.91878906 39.94335938 3.57878906 39.94335938 4.25878906 C39.07003212 4.01627411 39.07003212 4.01627411 38.17906189 3.76885986 C34.69766006 2.9745854 31.18870824 3.0752033 27.63476562 3.05566406 C26.83103012 3.04996399 26.02729462 3.04426392 25.19920349 3.03839111 C23.50220041 3.02896235 21.80517918 3.02241558 20.1081543 3.01855469 C17.51839233 3.00883609 14.92942008 2.97778823 12.33984375 2.94628906 C10.68815574 2.93975958 9.03646207 2.93450889 7.38476562 2.93066406 C6.61379044 2.91831726 5.84281525 2.90597046 5.04847717 2.89324951 C0.51753156 2.9119412 -2.50732833 3.35120606 -6.05664062 6.25878906 C-6.97852523 9.02444289 -7.17449284 10.64162608 -7.15429688 13.48925781 C-7.15107422 14.29169922 -7.14785156 15.09414062 -7.14453125 15.92089844 C-7.13615234 16.75427734 -7.12777344 17.58765625 -7.11914062 18.44628906 C-7.11462891 19.29126953 -7.11011719 20.13625 -7.10546875 21.00683594 C-7.09369466 23.09085061 -7.07575953 25.17482883 -7.05664062 27.25878906 C-6.85167969 26.62070313 -6.64671875 25.98261719 -6.43554688 25.32519531 C-6.03142578 24.08576172 -6.03142578 24.08576172 -5.61914062 22.82128906 C-5.35230469 21.99757813 -5.08546875 21.17386719 -4.81054688 20.32519531 C-4.05664062 18.25878906 -4.05664062 18.25878906 -3.05664062 17.25878906 C-1.22638426 17.15577693 0.60787924 17.12357215 2.44102478 17.11834717 C3.634319 17.11263702 4.82761322 17.10692688 6.05706787 17.1010437 C7.39147939 17.09979822 8.72589102 17.09867315 10.06030273 17.09765625 C11.45620353 17.09303042 12.85210306 17.08800608 14.2480011 17.08261108 C18.04960733 17.06946338 21.85119588 17.06303766 25.6528213 17.05860043 C28.02528483 17.05567383 30.39774347 17.05156985 32.77020454 17.04709625 C40.18550785 17.03341577 47.60080007 17.02375152 55.01611513 17.01989436 C63.59028132 17.01541051 72.16428835 16.99784984 80.73840612 16.96889377 C87.35666514 16.94731488 93.97487925 16.93719214 100.59317309 16.93585324 C104.55039201 16.93480258 108.50746143 16.92883966 112.46464348 16.91103363 C116.18531971 16.89461799 119.905733 16.89236541 123.62643242 16.90117264 C125.64901505 16.9023166 127.67158871 16.8885495 129.69412231 16.87442017 C130.89023636 16.87998932 132.0863504 16.88555847 133.31871033 16.89129639 C134.36272475 16.88982983 135.40673918 16.88836327 136.4823904 16.88685226 C137.29451016 17.00959141 138.10662992 17.13233055 138.94335938 17.25878906 C141.13132357 20.54073536 141.13212141 21.48354843 140.94335938 25.25878906 C140.94335938 26.24878906 140.94335938 27.23878906 140.94335938 28.25878906 C139.2872128 28.64097673 137.61878913 28.97274008 135.94335938 29.25878906 C135.61335937 28.92878906 135.28335938 28.59878906 134.94335938 28.25878906 C133.22562293 28.1581799 131.50372832 28.1280243 129.78305054 28.12507629 C128.66429535 28.12081131 127.54554016 28.11654633 126.3928833 28.1121521 C124.53527374 28.11283188 124.53527374 28.11283188 122.64013672 28.11352539 C121.34425629 28.11016678 120.04837585 28.10680817 118.71322632 28.10334778 C115.14680888 28.09448443 111.58041541 28.09216857 108.01398802 28.09153199 C105.03717183 28.09058397 102.06036126 28.08690654 99.08354723 28.0833599 C92.05618356 28.07520494 85.0288327 28.07277644 78.00146484 28.07348633 C70.75737324 28.07408602 63.51335636 28.06355825 56.26928365 28.04774266 C50.05009371 28.03464945 43.83092811 28.02930325 37.6117245 28.02994174 C33.89750906 28.03019639 30.18335987 28.02736393 26.46915817 28.01676369 C22.32037038 28.00524807 18.17174861 28.00984044 14.02294922 28.01586914 C12.79668823 28.01024963 11.57042725 28.00463013 10.30700684 27.99884033 C1.04954305 27.60242858 1.04954305 27.60242858 -7.05664062 31.25878906 C-7.21164433 33.84340976 -7.30316421 36.40404879 -7.35375977 38.99145508 C-7.37341293 39.80114746 -7.3930661 40.61083984 -7.41331482 41.44506836 C-7.47743049 44.13419149 -7.53462557 46.82341629 -7.59179688 49.51269531 C-7.63478398 51.37215646 -7.67820041 53.23160773 -7.72203064 55.09104919 C-7.83646399 59.99497573 -7.94503975 64.89901541 -8.0524292 69.80310059 C-8.16295115 74.80338481 -8.27896676 79.80354116 -8.39453125 84.80371094 C-8.62063582 94.62195249 -8.84055745 104.4403222 -9.05664062 114.25878906 C-9.38664062 114.25878906 -9.71664062 114.25878906 -10.05664062 114.25878906 C-10.12675447 100.39411288 -10.17944089 86.52946424 -10.21207714 72.6646471 C-10.22774006 66.22680835 -10.24899008 59.78908861 -10.28295898 53.35131836 C-10.31552962 47.13975032 -10.33348892 40.92829684 -10.34127235 34.71665001 C-10.34681995 32.34554936 -10.35765288 29.97445504 -10.3738308 27.60340309 C-10.39557409 24.28502424 -10.39860879 20.96712015 -10.3972168 17.64868164 C-10.40800262 16.666129 -10.41878845 15.68357635 -10.42990112 14.67124939 C-10.40750816 9.74528958 -10.37638425 6.19501263 -7.05664062 2.25878906 C-4.01258095 0.22941594 -3.41786972 0.00763133 0 0 Z " fill="#76C4EE" transform="translate(60.056640625,64.7412109375)"/>
<path d="M0 0 C0.33 0 0.66 0 1 0 C1.04637914 12.00478253 1.08189761 24.00954368 1.10362434 36.01439762 C1.11405307 41.58897635 1.12819573 47.1634937 1.15087891 52.73803711 C1.17263963 58.11967508 1.18457549 63.50125408 1.18975449 68.88293266 C1.19344443 70.93418748 1.20064995 72.98543913 1.21146011 75.03666878 C1.22601783 77.91392063 1.22797614 80.79093002 1.22705078 83.66821289 C1.23424133 84.51266464 1.24143188 85.35711639 1.24884033 86.22715759 C1.23009358 91.62848924 1.08008853 97.27941501 -2.33203125 101.7421875 C-7.39599484 105.61698814 -11.40755719 106.12299215 -17.6413269 106.13371277 C-18.76558075 106.13797775 -19.88983459 106.14224274 -21.04815674 106.14663696 C-22.27218201 106.14618378 -23.49620728 106.14573059 -24.75732422 106.14526367 C-26.70202103 106.15030159 -26.70202103 106.15030159 -28.68600464 106.15544128 C-32.23565687 106.16426012 -35.78528498 106.1666185 -39.33494711 106.16725707 C-41.55470244 106.16796875 -43.77445167 106.17010532 -45.99420547 106.17275429 C-53.74402505 106.18200058 -61.49382744 106.18609006 -69.24365234 106.18530273 C-76.45828951 106.18470207 -83.67285188 106.19525342 -90.88747013 106.2110464 C-97.08975572 106.22413771 -103.29201692 106.22948597 -109.49431622 106.22884732 C-113.19505834 106.22859281 -116.89573394 106.23141815 -120.59646225 106.24202538 C-124.72565547 106.25353807 -128.85468185 106.2489498 -132.98388672 106.24291992 C-134.20386353 106.24853943 -135.42384033 106.25415894 -136.68078613 106.25994873 C-149.97064147 106.21061298 -149.97064147 106.21061298 -155.3125 102.3125 C-159.85090616 96.09320267 -159.26716785 88.74057435 -159.1953125 81.37890625 C-159.1924826 80.27900864 -159.18965271 79.17911102 -159.18673706 78.04588318 C-159.1755898 74.55130897 -159.15049498 71.05699606 -159.125 67.5625 C-159.11496316 65.18555059 -159.10583854 62.80859714 -159.09765625 60.43164062 C-159.07566831 54.6210054 -159.0422451 48.81052138 -159 43 C-158.67 43 -158.34 43 -158 43 C-157.97494385 44.10811035 -157.9498877 45.2162207 -157.92407227 46.35791016 C-157.82868081 50.53654214 -157.72880247 54.71505767 -157.62768555 58.89355469 C-157.58482736 60.68942509 -157.54312691 62.48532355 -157.50268555 64.28125 C-158.3202943 81.63877961 -158.3202943 81.63877961 -155 98 C-154.67 92.72 -154.34 87.44 -154 82 C-153.67 82 -153.34 82 -153 82 C-152.98582031 82.90363281 -152.97164062 83.80726563 -152.95703125 84.73828125 C-152.90933594 85.91777344 -152.86164063 87.09726563 -152.8125 88.3125 C-152.77769531 89.48425781 -152.74289063 90.65601563 -152.70703125 91.86328125 C-152.32521967 95.1246947 -152.32521967 95.1246947 -149.80127525 96.67307663 C-146.73949742 98.12339628 -144.83934281 98.37267737 -141.4725647 98.36749268 C-140.37355331 98.37306183 -139.27454193 98.37863098 -138.14222717 98.3843689 C-136.94625412 98.37515411 -135.75028107 98.36593933 -134.51806641 98.35644531 C-133.25086258 98.35848969 -131.98365875 98.36053406 -130.67805481 98.36264038 C-127.20886812 98.36776588 -123.73997907 98.35425459 -120.27084017 98.33711338 C-116.63461835 98.32204673 -112.99839991 98.32325061 -109.3621521 98.32244873 C-103.25407859 98.31875818 -97.14611758 98.30380444 -91.03808594 98.28125 C-83.2109415 98.25240547 -75.38388776 98.24202818 -67.55669594 98.2375679 C-60.8141811 98.2335785 -54.07168577 98.2210765 -47.32918501 98.20722103 C-45.16877379 98.20313391 -43.00836324 98.2002022 -40.84794998 98.19742584 C-36.81217242 98.1915934 -32.77647361 98.17690128 -28.74072266 98.16113281 C-26.95283577 98.15945602 -26.95283577 98.15945602 -25.12882996 98.15774536 C-19.64874642 98.1294178 -14.39697586 97.97796772 -9 97 C-7.06928965 92.23758113 -6.59854867 87.75462875 -6.24609375 82.68359375 C-5.90306117 78.94290519 -5.1874922 75.56247659 -4 72 C-1.79086 75.31371 -1.77518447 76.3446021 -1.875 80.1875 C-1.89304688 81.08855469 -1.91109375 81.98960937 -1.9296875 82.91796875 C-1.95289063 83.60503906 -1.97609375 84.29210937 -2 85 C-1.34426635 56.66640272 -0.67797076 28.33307396 0 0 Z " fill="#3A64A0" transform="translate(207,86)"/>
<path d="M0 0 C2.26986168 2.26986168 2.88775876 4.01085168 4 7 C4.350625 7.804375 4.70125 8.60875 5.0625 9.4375 C6.10223537 12.27944334 6.50322977 15.01937862 7 18 C7.62225605 19.68375165 8.27544365 21.35767228 9 23 C9.99 23 10.98 23 12 23 C12.625 24.8125 12.625 24.8125 13 27 C12.34 27.99 11.68 28.98 11 30 C11.33 30.99 11.66 31.98 12 33 C12.66 31.02 13.32 29.04 14 27 C14.99 27 15.98 27 17 27 C17.33 28.98 17.66 30.96 18 33 C18.66 32.34 19.32 31.68 20 31 C20.33333333 33 20.66666667 35 21 37 C21.185625 38.051875 21.37125 39.10375 21.5625 40.1875 C22.1273172 43.81846772 21.98057443 47.35841939 21.90820312 51.0222168 C21.88818237 52.04304855 21.86816162 53.06388031 21.84753418 54.11564636 C21.81472351 55.76576469 21.81472351 55.76576469 21.78125 57.44921875 C21.75905396 58.5769722 21.73685791 59.70472565 21.71398926 60.86665344 C21.64293503 64.47360779 21.57147217 68.08055391 21.5 71.6875 C21.45179603 74.13085884 21.40361861 76.57421821 21.35546875 79.01757812 C21.2372874 85.01172487 21.11877042 91.0058649 21 97 C20.34 97 19.68 97 19 97 C19 95.68 19 94.36 19 93 C18.34 93 17.68 93 17 93 C16.34 92.34 15.68 91.68 15 91 C14.01 91.99 13.02 92.98 12 94 C12.1546875 92.9171875 12.1546875 92.9171875 12.3125 91.8125 C11.87415562 87.86740058 9.84840916 86.64495136 7 84 C5.8125 81.875 5.8125 81.875 5 80 C4.34 79.01 3.68 78.02 3 77 C3.165 76.21625 3.33 75.4325 3.5 74.625 C4.11575903 71.39226507 3.29318484 69.96671815 2 67 C2 65.68 2 64.36 2 63 C1.7215625 61.7934375 1.7215625 61.7934375 1.4375 60.5625 C0.95280409 57.72356682 1.32467292 55.77634467 2 53 C2 52.34 2 51.68 2 51 C1.34 50.67 0.68 50.34 0 50 C0 49.01 0 48.02 0 47 C-0.15752064 45.65676876 -0.32269719 44.31442968 -0.4921875 42.97265625 C-1.24669485 35.63687184 -1.14942968 28.28582255 -1.13037109 20.91967773 C-1.12494458 18.41188702 -1.13037795 15.90427011 -1.13671875 13.39648438 C-1.1360591 11.8046871 -1.13478028 10.21288994 -1.1328125 8.62109375 C-1.13483673 7.87016953 -1.13686096 7.1192453 -1.13894653 6.3455658 C-1.11499574 1.11499574 -1.11499574 1.11499574 0 0 Z " fill="#1F1F1F" transform="translate(209,82)"/>
<path d="M0 0 C1.32 0.33 2.64 0.66 4 1 C4 1.99 4 2.98 4 4 C4.66 3.34 5.32 2.68 6 2 C6.37905468 7.55946864 6.37905468 7.55946864 4.50219727 9.74072266 C2.40805315 12.89027729 2.66114011 15.75409119 2.77734375 19.3984375 C2.78633194 20.11101715 2.79532013 20.8235968 2.80458069 21.55776978 C2.83453283 23.83068176 2.88427644 26.10252247 2.9375 28.375 C2.98549699 30.64026509 3.0288576 32.90524042 3.05970764 35.17080688 C3.07929234 36.57787065 3.10872182 37.98484403 3.14964294 39.39144897 C3.21447713 43.6590856 2.56415179 47.03451231 1 51 C0.67 51 0.34 51 0 51 C0 49.02 0 47.04 0 45 C-0.66 45 -1.32 45 -2 45 C-2 45.66 -2 46.32 -2 47 C-3.98 47.495 -3.98 47.495 -6 48 C-6 49.32 -6 50.64 -6 52 C-4.02 51.505 -4.02 51.505 -2 51 C-2.33 53.31 -2.66 55.62 -3 58 C-4.65 58 -6.3 58 -8 58 C-8.97608217 55.07175348 -9.08226668 53.04386724 -9 50 C-10.32 49.34 -11.64 48.68 -13 48 C-13.66 48.66 -14.32 49.32 -15 50 C-15.66 50 -16.32 50 -17 50 C-16.443125 50.86625 -16.443125 50.86625 -15.875 51.75 C-15 54 -15 54 -15.8125 55.875 C-16.204375 56.57625 -16.59625 57.2775 -17 58 C-18.0158134 62.74002051 -18.16424202 67.41068197 -18.2109375 72.23828125 C-18.23697787 73.86907113 -18.26378166 75.49984895 -18.29125977 77.13061523 C-18.30456329 77.97776093 -18.31786682 78.82490662 -18.33157349 79.69772339 C-18.60189555 95.97422678 -19.50520254 111.88825534 -22 128 C-22.33 128 -22.66 128 -23 128 C-23.02507608 122.453942 -23.04303422 116.90791837 -23.05493164 111.36181641 C-23.05990147 109.48257877 -23.06667966 107.60334488 -23.07543945 105.72412109 C-23.12129743 95.6191811 -22.99940681 85.60908757 -22.27416992 75.52490234 C-21.88572044 69.66990164 -21.74432706 63.80591865 -21.5703125 57.94140625 C-21.49621056 55.57356405 -21.42199029 53.20572555 -21.34765625 50.83789062 C-21.23381794 47.18249817 -21.12405172 43.52718706 -21.02587891 39.87133789 C-20.92810063 36.2900296 -20.81314706 32.70960357 -20.6953125 29.12890625 C-20.65762253 27.50209679 -20.65762253 27.50209679 -20.61917114 25.84242249 C-20.39039997 19.40959489 -19.44497595 13.96859692 -17 8 C-15.68 8 -14.36 8 -13 8 C-12.67 6.35 -12.34 4.7 -12 3 C-9 4 -9 4 -8 6 C-7.030625 5.505 -6.06125 5.01 -5.0625 4.5 C-2 3 -2 3 -1 3 C-0.67 2.01 -0.34 1.02 0 0 Z " fill="#2A2A2A" transform="translate(45,58)"/>
<path d="M0 0 C1.19329422 -0.00571014 2.38658844 -0.01142029 3.61604309 -0.01730347 C4.95045461 -0.01854894 6.28486624 -0.01967401 7.61927795 -0.02069092 C9.01517875 -0.02531675 10.41107828 -0.03034109 11.80697632 -0.03573608 C15.60858255 -0.04888379 19.4101711 -0.05530951 23.21179652 -0.05974674 C25.58426005 -0.06267334 27.95671869 -0.06677732 30.32917976 -0.07125092 C37.74448307 -0.08493139 45.15977529 -0.09459565 52.57509035 -0.09845281 C61.14925654 -0.10293666 69.72326357 -0.12049733 78.29738134 -0.1494534 C84.91564036 -0.17103229 91.53385447 -0.18115503 98.15214831 -0.18249393 C102.10936723 -0.18354459 106.06643665 -0.18950751 110.0236187 -0.20731354 C113.74429493 -0.22372918 117.46470822 -0.22598176 121.18540764 -0.21717453 C123.20799027 -0.21603057 125.23056393 -0.22979766 127.25309753 -0.243927 C128.44921158 -0.23835785 129.64532562 -0.2327887 130.87768555 -0.22705078 C131.92169997 -0.22851734 132.9657144 -0.2299839 134.04136562 -0.2314949 C134.85348538 -0.10875576 135.66560514 0.01398338 136.50233459 0.14044189 C138.50233459 3.14044189 138.50233459 3.14044189 138.50233459 7.14044189 C90.32233459 7.14044189 42.14233459 7.14044189 -7.49766541 7.14044189 C-6.31058958 0.01798697 -6.31058958 0.01798697 0 0 Z " fill="#E5E7E9" transform="translate(62.49766540527344,81.85955810546875)"/>
<path d="M0 0 C1.12209366 0.00141495 2.24418732 0.0028299 3.40028381 0.00428772 C6.96610233 0.00986225 10.53185687 0.02241009 14.09765625 0.03515625 C16.52278555 0.04017454 18.94791584 0.04473687 21.37304688 0.04882812 C27.30210497 0.05982334 33.23112604 0.07653605 39.16015625 0.09765625 C39.16015625 0.42765625 39.16015625 0.75765625 39.16015625 1.09765625 C38.52924072 1.1227124 37.8983252 1.14776855 37.24829102 1.17358398 C34.406188 1.28919762 31.56444542 1.41207941 28.72265625 1.53515625 C27.23282227 1.59413086 27.23282227 1.59413086 25.71289062 1.65429688 C24.2965332 1.71713867 24.2965332 1.71713867 22.8515625 1.78125 C21.97701416 1.81790771 21.10246582 1.85456543 20.20141602 1.89233398 C18.16741605 1.87946691 18.16741605 1.87946691 17.16015625 3.09765625 C14.76000654 3.2799678 12.38064808 3.40366971 9.9765625 3.4921875 C8.47587591 3.56107898 6.97522575 3.63076755 5.47460938 3.70117188 C3.11192013 3.80766957 0.74947201 3.90916722 -1.61401367 3.99633789 C-13.60435793 4.40395739 -13.60435793 4.40395739 -24.87915039 8.2644043 C-26.83984375 9.09765625 -26.83984375 9.09765625 -30.83984375 9.09765625 C-30.83984375 9.75765625 -30.83984375 10.41765625 -30.83984375 11.09765625 C-33.83984375 13.09765625 -33.83984375 13.09765625 -36.83984375 13.09765625 C-37.16984375 14.08765625 -37.49984375 15.07765625 -37.83984375 16.09765625 C-38.62359375 16.55140625 -39.40734375 17.00515625 -40.21484375 17.47265625 C-43.25374038 19.35387797 -44.11329178 21.01988969 -45.83984375 24.09765625 C-46.47535156 24.69835937 -47.11085938 25.2990625 -47.765625 25.91796875 C-50.07926887 28.34925553 -51.16656733 30.44860875 -52.46484375 33.53515625 C-52.86960937 34.46199219 -53.274375 35.38882813 -53.69140625 36.34375 C-57.51279039 48.83473694 -57.33503472 61.93317677 -57.73150635 74.8793335 C-57.91557872 80.87843344 -58.12472528 86.8766653 -58.33203125 92.875 C-58.37294891 94.07509705 -58.41386658 95.27519409 -58.45602417 96.51165771 C-58.8492641 107.83777388 -59.37832184 119.15507775 -59.96484375 130.47265625 C-60.00931641 131.33484772 -60.05378906 132.19703918 -60.09960938 133.08535767 C-60.34129187 137.75640174 -60.58788785 142.42715541 -60.83984375 147.09765625 C-61.16984375 147.09765625 -61.49984375 147.09765625 -61.83984375 147.09765625 C-61.88667599 136.80343035 -61.92196653 126.50923077 -61.94346809 116.21491909 C-61.95380009 111.43222159 -61.96775946 106.64959822 -61.99072266 101.86694336 C-62.31229212 33.01387595 -62.31229212 33.01387595 -45.58984375 15.34765625 C-32.57397275 3.02712394 -17.33649289 -0.08289401 0 0 Z " fill="#787878" transform="translate(82.83984375,21.90234375)"/>
<path d="M0 0 C10.41513593 -0.02331984 20.8302655 -0.04101412 31.24542236 -0.05181217 C36.08322074 -0.05699847 40.92100107 -0.06401744 45.75878906 -0.07543945 C50.44020766 -0.08642127 55.12160905 -0.09230873 59.80303955 -0.09487724 C61.57611359 -0.09670426 63.34918684 -0.10027086 65.12225342 -0.10573006 C113.1663532 -0.24757594 113.1663532 -0.24757594 130.75 16 C138.43010827 24.04268849 144.71385662 35.13105717 145.125 46.4375 C145.08375 47.283125 145.0425 48.12875 145 49 C141.59141414 45.59141414 141.06991606 40.67798535 140.875 36 C140.91625 35.34 140.9575 34.68 141 34 C140.01 33.67 139.02 33.34 138 33 C137.66666667 31.66666667 137.33333333 30.33333333 137 29 C135.69864875 27.30824337 134.36244796 25.64295195 133 24 C132.566875 23.195625 132.13375 22.39125 131.6875 21.5625 C128.21604728 16.29103476 123.82230571 13.23661744 118 11 C116.45424095 10.15326168 114.91264311 9.2988887 113.375 8.4375 C108.72093667 6.06524948 104.73115542 5.35520288 99.54296875 5.140625 C97 5 97 5 94.59375 4.4921875 C91.46080259 3.89768242 88.49977208 3.86773142 85.3125 3.875 C84.17425781 3.87242188 83.03601563 3.86984375 81.86328125 3.8671875 C79.05501397 3.80362215 79.05501397 3.80362215 77 5 C74.50483505 5.09877044 72.03825715 5.13985031 69.54296875 5.1328125 C68.80299149 5.13376923 68.06301422 5.13472595 67.3006134 5.13571167 C65.73287878 5.13639273 64.16514133 5.13454357 62.59741211 5.13037109 C60.20745422 5.12504447 57.81768622 5.13030674 55.42773438 5.13671875 C53.90364542 5.13605751 52.37955658 5.1347754 50.85546875 5.1328125 C49.78802681 5.13584885 49.78802681 5.13584885 48.69902039 5.13894653 C44.98667094 5.12158135 41.62241162 4.75723778 38 4 C36.01561604 3.92130162 34.02888652 3.89215956 32.04296875 3.90234375 C30.93115234 3.90556641 29.81933594 3.90878906 28.67382812 3.91210938 C26.9480957 3.92467773 26.9480957 3.92467773 25.1875 3.9375 C24.01767578 3.94201172 22.84785156 3.94652344 21.64257812 3.95117188 C18.76166642 3.9629307 15.88085956 3.97936574 13 4 C13 3.34 13 2.68 13 2 C8.71 1.67 4.42 1.34 0 1 C0 0.67 0 0.34 0 0 Z " fill="#45494E" transform="translate(88,21)"/>
<path d="M0 0 C0.33 0 0.66 0 1 0 C1.04683224 10.2942259 1.08212278 20.58842548 1.10362434 30.88273716 C1.11395634 35.66543466 1.12791571 40.44805803 1.15087891 45.23071289 C1.47244837 114.0837803 1.47244837 114.0837803 -15.25 131.75 C-38.42886792 153.69059785 -75.59836438 148.2769635 -105.05493164 148.1373291 C-109.90965001 148.11656487 -114.76439029 148.10767122 -119.61914062 148.09765625 C-129.07948327 148.0764523 -138.53973062 148.04249295 -148 148 C-148 147.67 -148 147.34 -148 147 C-147.2955777 146.98969254 -146.5911554 146.97938507 -145.86538696 146.96876526 C-139.18730146 146.87029213 -132.50929266 146.7677128 -125.83133888 146.66066074 C-122.39914442 146.60578148 -118.9669411 146.55242268 -115.53466797 146.50268555 C-111.57772093 146.44527574 -107.62089921 146.38098844 -103.6640625 146.31640625 C-101.83846298 146.29133751 -101.83846298 146.29133751 -99.97598267 146.26576233 C-93.96533142 146.16245418 -88.04709904 145.89766135 -82.07211304 145.22935486 C-79.64312271 144.96049852 -77.22281983 144.81558863 -74.78125 144.71875 C-73.91113281 144.68136719 -73.04101562 144.64398438 -72.14453125 144.60546875 C-70.38151042 144.53515625 -68.61848958 144.46484375 -66.85546875 144.39453125 C-61.60463141 144.16893972 -56.41236187 143.78022396 -51.19067383 143.17675781 C-49 143 -49 143 -45.1875 143.25 C-33.53601695 143.3441534 -23.97560757 135.70664676 -16.00390625 128.09375 C-5.27141212 116.83040132 -2.8302456 100.98099924 -1.8515625 86.01171875 C-1.73296371 84.30443855 -1.73296371 84.30443855 -1.61196899 82.56266785 C-0.63669737 67.13817971 -0.54594045 51.68314106 -0.39910889 36.2331543 C-0.35822963 32.12867024 -0.30753326 28.02430665 -0.2578125 23.91992188 C-0.16259646 15.94669871 -0.0777299 7.97341278 0 0 Z " fill="#676767" transform="translate(234,87)"/>
<path d="M0 0 C0.77916779 -0.00570007 1.55833557 -0.01140015 2.3611145 -0.01727295 C4.00684256 -0.02670146 5.65258931 -0.03324838 7.29833984 -0.03710938 C9.80469963 -0.04681454 12.31023872 -0.07785707 14.81640625 -0.109375 C16.41926599 -0.11590592 18.02213156 -0.12115604 19.625 -0.125 C20.36894012 -0.1373468 21.11288025 -0.1496936 21.87936401 -0.16241455 C27.26561087 -0.1395632 31.58651226 0.85031156 35.484375 4.73828125 C36.02191406 5.49431641 36.02191406 5.49431641 36.5703125 6.265625 C39.24322863 9.5918746 39.24322863 9.5918746 42.9453125 11.203125 C45.82554692 11.39755584 48.60997862 11.48344265 51.48999023 11.47436523 C52.35061066 11.47959198 53.21123108 11.48481873 54.09793091 11.49020386 C55.96454993 11.50043632 57.83119742 11.50622295 59.69784355 11.50808525 C62.65270692 11.51174825 65.60723448 11.52847279 68.56202698 11.54884338 C76.96226766 11.60426482 85.36255764 11.63495357 93.76293945 11.65942383 C98.90290771 11.675299 104.04263718 11.70551673 109.18248177 11.74418831 C111.14045744 11.75583774 113.09847581 11.76176865 115.05648613 11.76186943 C117.79499115 11.7620615 120.53283751 11.78032871 123.27124023 11.80249023 C124.0791954 11.79791306 124.88715057 11.79333588 125.71958923 11.78862 C130.29657039 11.84750096 133.31673818 12.33627253 136.9453125 15.203125 C138.2578125 17.390625 138.2578125 17.390625 138.9453125 19.203125 C138.0378125 18.56375 137.1303125 17.924375 136.1953125 17.265625 C130.99704621 13.96672524 126.5829648 14.06908837 120.54003906 14.10888672 C118.78680437 14.11167278 117.03356949 14.11434273 115.28033447 14.11691284 C114.35281624 14.11996304 113.425298 14.12301323 112.46967316 14.12615585 C107.54745197 14.13751802 102.62532216 14.11699376 97.703125 14.1015625 C91.44416435 14.08328013 85.18569687 14.07457298 78.92675781 14.10351562 C73.86432051 14.1260881 68.80295356 14.11458107 63.74059296 14.08050919 C61.81577618 14.07375219 59.89087305 14.07938625 57.96613312 14.09786606 C41.01693122 14.25010495 41.01693122 14.25010495 35.70214844 9.77392578 C32.9453125 6.74464112 32.9453125 6.74464112 32.9453125 4.203125 C30.25655996 3.30687415 28.6662348 3.06856484 25.90454102 3.04199219 C25.09682755 3.03238464 24.28911407 3.0227771 23.45692444 3.01287842 C22.58813156 3.00862854 21.71933868 3.00437866 20.82421875 3 C19.92791245 2.99429993 19.03160614 2.98859985 18.10813904 2.98272705 C16.2126483 2.97328336 14.3171412 2.96674557 12.42163086 2.96289062 C9.52233316 2.95317367 6.62374105 2.92213998 3.72460938 2.890625 C1.88281671 2.88409584 0.04101898 2.87884503 -1.80078125 2.875 C-2.6675499 2.8626532 -3.53431854 2.8503064 -4.42735291 2.83758545 C-9.18803544 2.85073995 -9.18803544 2.85073995 -13.57055664 4.53613281 C-15.95854206 7.21834444 -16.18142106 9.76757877 -16.21290588 13.2084198 C-16.2226947 14.02030258 -16.23248352 14.83218536 -16.24256897 15.66867065 C-16.24832443 16.55555573 -16.2540799 17.4424408 -16.26000977 18.35620117 C-16.26990936 19.29298203 -16.27980896 20.22976288 -16.29000854 21.19493103 C-16.32162839 24.29529278 -16.34638296 27.39566986 -16.37109375 30.49609375 C-16.39166285 32.64415386 -16.41265931 34.79220992 -16.43406677 36.94026184 C-16.48929193 42.59716513 -16.5386993 48.25410497 -16.58691406 53.91107178 C-16.63712581 59.68228412 -16.69281358 65.4534433 -16.74804688 71.22460938 C-16.8556339 82.55073585 -16.95707771 93.87690846 -17.0546875 105.203125 C-17.3846875 105.203125 -17.7146875 105.203125 -18.0546875 105.203125 C-18.78690162 83.60865046 -19.19765562 62.01275006 -19.28686523 40.40579224 C-19.29872065 37.94276913 -19.3157875 35.47976544 -19.33813477 33.01681519 C-19.36807174 29.52671221 -19.37804859 26.03709193 -19.3828125 22.546875 C-19.39511902 21.50358536 -19.40742554 20.46029572 -19.42010498 19.38539124 C-19.40236287 13.53673921 -18.89181316 9.35807326 -16.0546875 4.203125 C-11.42063477 -0.28144215 -6.14521225 0.03491551 0 0 Z " fill="#4A88C2" transform="translate(67.0546875,62.796875)"/>
<path d="M0 0 C0.34796127 0.42501297 0.69592255 0.85002594 1.0544281 1.28791809 C8.34729745 8.40745311 18.31728176 6.79423369 27.78515625 6.69921875 C29.72994269 6.70285594 31.67472558 6.70956292 33.61949158 6.7191925 C38.724819 6.73821801 43.82946422 6.72426784 48.93475342 6.70068359 C57.10833759 6.66623157 65.28175358 6.6721367 73.45535088 6.6968174 C76.30218279 6.699181 79.14838028 6.68141585 81.99513245 6.6615448 C83.74813846 6.66129657 85.50114473 6.66169473 87.25415039 6.6628418 C88.43184494 6.64654976 88.43184494 6.64654976 89.6333313 6.62992859 C94.80086654 6.65698836 98.41591128 7.56205958 103 10 C103.495 10.99 103.495 10.99 104 12 C103.41969748 11.83798568 102.83939497 11.67597136 102.24150753 11.50904751 C98.65458325 10.69445517 95.02459076 10.83809352 91.36352539 10.82641602 C90.4931514 10.819729 89.6227774 10.81304199 88.72602844 10.80615234 C86.83812411 10.792117 84.95020297 10.78021813 83.06227303 10.77020454 C80.07387797 10.75377553 77.08560771 10.73053753 74.09727478 10.70530701 C65.60145293 10.63457826 57.10558079 10.57438646 48.60961914 10.52319336 C43.41132957 10.49139358 38.21318492 10.45011829 33.01501274 10.40299797 C31.0347091 10.38698749 29.05437211 10.37466152 27.07402229 10.36609077 C24.30448822 10.35392994 21.53529474 10.3297775 18.76586914 10.30297852 C17.53991028 10.3020948 17.53991028 10.3020948 16.28918457 10.30119324 C12.07823812 10.24723076 8.84566813 9.93267857 5 8 C5 7.34 5 6.68 5 6 C4.34 6 3.68 6 3 6 C0 2.53846154 0 2.53846154 0 0 Z " fill="#7AC8EF" transform="translate(100,69)"/>
<path d="M0 0 C0.81094116 -0.00630432 1.62188232 -0.01260864 2.45739746 -0.019104 C3.76529236 -0.01303131 3.76529236 -0.01303131 5.09960938 -0.00683594 C6.44762634 -0.00970612 6.44762634 -0.00970612 7.82287598 -0.01263428 C9.72257772 -0.01399504 11.62228879 -0.01030621 13.52197266 -0.00195312 C16.43217833 0.00874795 19.34176669 -0.00185208 22.25195312 -0.01464844 C24.09700657 -0.01332682 25.94205964 -0.01076439 27.78710938 -0.00683594 C28.65903931 -0.0108844 29.53096924 -0.01493286 30.42932129 -0.019104 C31.24026245 -0.01279968 32.05120361 -0.00649536 32.88671875 0 C33.95569397 0.00238678 33.95569397 0.00238678 35.04626465 0.00482178 C36.94335938 0.25878906 36.94335938 0.25878906 39.94335938 2.25878906 C39.94335938 2.91878906 39.94335938 3.57878906 39.94335938 4.25878906 C39.07003212 4.01627411 39.07003212 4.01627411 38.17906189 3.76885986 C34.69766006 2.9745854 31.18870824 3.0752033 27.63476562 3.05566406 C26.83103012 3.04996399 26.02729462 3.04426392 25.19920349 3.03839111 C23.50220041 3.02896235 21.80517918 3.02241558 20.1081543 3.01855469 C17.51839233 3.00883609 14.92942008 2.97778823 12.33984375 2.94628906 C10.68815574 2.93975958 9.03646207 2.93450889 7.38476562 2.93066406 C6.61379044 2.91831726 5.84281525 2.90597046 5.04847717 2.89324951 C0.51753156 2.9119412 -2.50732833 3.35120606 -6.05664062 6.25878906 C-8.88830738 14.75378934 -8.18342934 24.41247624 -8.11914062 33.26269531 C-8.11059028 35.78906221 -8.10213009 38.31542941 -8.09375 40.84179688 C-8.08430652 42.8289134 -8.07486285 44.81602993 -8.06539917 46.80314636 C-8.03903415 52.87817089 -8.03004696 58.9532449 -8.02539062 65.02832031 C-8.02484177 65.69113888 -8.02429291 66.35395744 -8.02372742 67.03686142 C-8.01661266 82.79040249 -8.39052393 98.52001061 -9.05664062 114.25878906 C-9.38664062 114.25878906 -9.71664062 114.25878906 -10.05664062 114.25878906 C-10.12675447 100.39411288 -10.17944089 86.52946424 -10.21207714 72.6646471 C-10.22774006 66.22680835 -10.24899008 59.78908861 -10.28295898 53.35131836 C-10.31552962 47.13975032 -10.33348892 40.92829684 -10.34127235 34.71665001 C-10.34681995 32.34554936 -10.35765288 29.97445504 -10.3738308 27.60340309 C-10.39557409 24.28502424 -10.39860879 20.96712015 -10.3972168 17.64868164 C-10.40800262 16.666129 -10.41878845 15.68357635 -10.42990112 14.67124939 C-10.40750816 9.74528958 -10.37638425 6.19501263 -7.05664062 2.25878906 C-4.01258095 0.22941594 -3.41786972 0.00763133 0 0 Z " fill="#84D3F3" transform="translate(60.056640625,64.7412109375)"/>
<path d="M0 0 C1.75708534 -0.00472824 1.75708534 -0.00472824 3.54966736 -0.009552 C4.8204866 -0.00752777 6.09130585 -0.00550354 7.40063477 -0.00341797 C8.7002565 -0.00437469 9.99987823 -0.00533142 11.33888245 -0.00631714 C14.09198187 -0.00779258 16.84504887 -0.00564484 19.59814453 -0.00097656 C23.12673499 0.00471504 26.65524929 0.00144438 30.18383694 -0.00454903 C33.54777564 -0.0090329 36.9116939 -0.00589254 40.27563477 -0.00341797 C41.54442978 -0.0054422 42.81322479 -0.00746643 44.12046814 -0.009552 C45.29501053 -0.00639984 46.46955292 -0.00324768 47.6796875 0 C48.71512192 0.00079559 49.75055634 0.00159119 50.81736755 0.00241089 C53.40454102 0.12939453 53.40454102 0.12939453 56.40454102 1.12939453 C58.47128007 1.14532419 60.53880184 1.09555252 62.60375977 1.00830078 C63.81225586 0.95996094 65.02075195 0.91162109 66.26586914 0.86181641 C68.15982422 0.77770508 68.15982422 0.77770508 70.09204102 0.69189453 C71.3662793 0.6396875 72.64051758 0.58748047 73.95336914 0.53369141 C77.1040014 0.40389008 80.25432678 0.26891893 83.40454102 0.12939453 C83.40454102 0.78939453 83.40454102 1.44939453 83.40454102 2.12939453 C82.84992188 2.15445068 82.29530273 2.17950684 81.72387695 2.20532227 C79.20055259 2.3216738 76.67756566 2.44422207 74.15454102 2.56689453 C72.84549805 2.62586914 72.84549805 2.62586914 71.51000977 2.68603516 C70.66567383 2.72792969 69.82133789 2.76982422 68.95141602 2.81298828 C68.17636719 2.849646 67.40131836 2.88630371 66.6027832 2.92407227 C64.46437639 3.05145777 64.46437639 3.05145777 62.71414185 3.63414001 C59.53481032 4.31589345 56.50410869 4.25678008 53.25268555 4.25878906 C52.18361969 4.26141754 52.18361969 4.26141754 51.09295654 4.26409912 C48.74106396 4.26849376 46.38924684 4.26558742 44.03735352 4.26220703 C42.3983458 4.26288091 40.75933818 4.26385163 39.12033081 4.2651062 C35.68559823 4.26658006 32.25089166 4.26443915 28.81616211 4.25976562 C24.42251569 4.25407753 20.02893049 4.25734348 15.63528633 4.26333809 C12.25002587 4.26695977 8.8647798 4.26579757 5.47951889 4.2632103 C3.86006539 4.26254501 2.24061056 4.26335549 0.6211586 4.26568985 C-1.64753403 4.26824177 -3.91612905 4.26433971 -6.18481445 4.25878906 C-7.47402802 4.25799347 -8.76324158 4.25719788 -10.09152222 4.25637817 C-13.35264306 4.13819425 -16.39584443 3.74982576 -19.59545898 3.12939453 C-19.59545898 2.79939453 -19.59545898 2.46939453 -19.59545898 2.12939453 C-18.15806386 2.10227387 -16.72052036 2.08294386 -15.28295898 2.06689453 C-14.08219727 2.04949219 -14.08219727 2.04949219 -12.85717773 2.03173828 C-10.59545898 2.12939453 -10.59545898 2.12939453 -7.59545898 3.12939453 C-7.59545898 2.46939453 -7.59545898 1.80939453 -7.59545898 1.12939453 C-4.95023779 -0.19321607 -2.96213541 0.00227776 0 0 Z " fill="#242424" transform="translate(83.595458984375,229.87060546875)"/>
<path d="M0 0 C0.66 0 1.32 0 2 0 C2.07067978 7.65195459 2.12339139 15.30387389 2.15543652 22.95608425 C2.17084555 26.51242845 2.19160581 30.06854353 2.22631836 33.62475586 C2.3973717 51.614155 1.73137861 69.17099615 -1 87 C-1.33 87 -1.66 87 -2 87 C-2.02507608 81.453942 -2.04303422 75.90791837 -2.05493164 70.36181641 C-2.05990147 68.48257877 -2.06667966 66.60334488 -2.07543945 64.72412109 C-2.12236565 54.38379669 -1.99486697 44.12960994 -1.25610352 33.81445312 C-0.81305627 27.21562547 -0.63790858 20.61019782 -0.4375 14 C-0.3941045 12.62759706 -0.35048535 11.25520117 -0.30664062 9.8828125 C-0.20224668 6.58860356 -0.1000528 3.29434315 0 0 Z " fill="#2E2E2F" transform="translate(24,99)"/>
<path d="M0 0 C1.6746508 0.00424484 1.6746508 0.00424484 3.38313293 0.00857544 C6.90788022 0.01966543 10.43236229 0.0447487 13.95703125 0.0703125 C16.36392859 0.08035676 18.77082996 0.08948007 21.17773438 0.09765625 C27.04175536 0.11956799 32.90562435 0.15293219 38.76953125 0.1953125 C38.76953125 0.5253125 38.76953125 0.8553125 38.76953125 1.1953125 C38.13861572 1.22036865 37.5077002 1.2454248 36.85766602 1.27124023 C34.015563 1.38685387 31.17382042 1.50973566 28.33203125 1.6328125 C26.84219727 1.69178711 26.84219727 1.69178711 25.32226562 1.75195312 C23.9059082 1.81479492 23.9059082 1.81479492 22.4609375 1.87890625 C21.58638916 1.91556396 20.71184082 1.95222168 19.81079102 1.98999023 C17.77679105 1.97712316 17.77679105 1.97712316 16.76953125 3.1953125 C14.41894178 3.41452071 12.09059605 3.57453608 9.734375 3.6953125 C9.02229385 3.73591797 8.31021271 3.77652344 7.57655334 3.81835938 C5.28693497 3.94842912 2.99703992 4.07232032 0.70703125 4.1953125 C-1.55793603 4.31895716 -3.82279781 4.44401538 -6.08750916 4.57226562 C-7.49764015 4.65192723 -8.90792524 4.72892454 -10.31837463 4.80273438 C-19.93755266 5.2341772 -19.93755266 5.2341772 -28.98046875 8.1953125 C-31.72544687 9.5381795 -34.23834891 10.54836767 -37.23046875 11.1953125 C-36.20367323 8.33972733 -35.46133835 7.32946145 -32.796875 5.78125 C-31.30994141 5.18183594 -31.30994141 5.18183594 -29.79296875 4.5703125 C-28.82488281 4.16554688 -27.85679688 3.76078125 -26.859375 3.34375 C-17.96321148 0.52838716 -9.28245478 -0.09049852 0 0 Z " fill="#8F8F8F" transform="translate(83.23046875,21.8046875)"/>
<path d="M0 0 C27.06 0 54.12 0 82 0 C82 0.33 82 0.66 82 1 C80.47632813 1.09087891 80.47632813 1.09087891 78.921875 1.18359375 C72.67108403 1.56219826 66.42529153 1.9409945 60.1875 2.5 C44.45405168 3.83406089 28.78495265 4.14580388 13 4 C13 3.34 13 2.68 13 2 C8.71 1.67 4.42 1.34 0 1 C0 0.67 0 0.34 0 0 Z " fill="#6A6A6A" transform="translate(88,21)"/>
<path d="M0 0 C-2.96687001 1.64826111 -5.65626525 2.44271087 -9 3 C-9 3.33 -9 3.66 -9 4 C-19.82372912 5.07854363 -30.56037004 5.13038919 -41.42578125 5.09765625 C-43.26808127 5.09578686 -45.1103818 5.09436542 -46.9526825 5.09336853 C-51.75789813 5.08958437 -56.56308264 5.07979003 -61.36828613 5.06866455 C-66.2891396 5.05836134 -71.20999819 5.05385198 -76.13085938 5.04882812 C-85.75391978 5.03816331 -95.37695729 5.02113732 -105 5 C-105 4.67 -105 4.34 -105 4 C-104.2955777 3.98969254 -103.5911554 3.97938507 -102.86538696 3.96876526 C-96.18730146 3.87029213 -89.50929266 3.7677128 -82.83133888 3.66066074 C-79.39914442 3.60578148 -75.9669411 3.55242268 -72.53466797 3.50268555 C-68.57772093 3.44527574 -64.62089921 3.38098844 -60.6640625 3.31640625 C-59.44699615 3.29969376 -58.22992981 3.28298126 -56.97598267 3.26576233 C-50.96674422 3.16247846 -45.05012874 2.89751886 -39.0765686 2.22935486 C-36.62268478 1.95832592 -34.17750986 1.81497652 -31.7109375 1.71875 C-30.83179688 1.68136719 -29.95265625 1.64398438 -29.046875 1.60546875 C-27.25782463 1.53484834 -25.46876197 1.46453851 -23.6796875 1.39453125 C-19.6373265 1.22213644 -15.64590468 1.0002274 -11.6328125 0.47265625 C-7.67157952 -0.04272998 -3.98363592 -0.07113636 0 0 Z " fill="#57595C" transform="translate(191,230)"/>
<path d="M0 0 C1.32 0.66 2.64 1.32 4 2 C4 3.98 4 5.96 4 8 C1.6875 9.125 1.6875 9.125 -1 10 C-1.99 9.34 -2.98 8.68 -4 8 C-4.33 8.66 -4.66 9.32 -5 10 C-5.99 9.34 -6.98 8.68 -8 8 C-8.33 8.66 -8.66 9.32 -9 10 C-9.66 9.34 -10.32 8.68 -11 8 C-11.61875 8.495 -12.2375 8.99 -12.875 9.5 C-15 11 -15 11 -17 11 C-17.33 10.67 -17.66 10.34 -18 10 C-18.99 9.34 -19.98 8.68 -21 8 C-21.99 8.66 -22.98 9.32 -24 10 C-24 7.35220307 -23.82804069 5.48412207 -23 3 C-22.34 2.67 -21.68 2.34 -21 2 C-20.01 3.485 -20.01 3.485 -19 5 C-18.2575 4.835 -17.515 4.67 -16.75 4.5 C-13.1515836 3.84574247 -9.65280034 4 -6 4 C-3.406659 2.93215371 -2.002501 2.002501 0 0 Z M1 2 C0.34 2.66 -0.32 3.32 -1 4 C0.485 4.99 0.485 4.99 2 6 C1.67 4.68 1.34 3.36 1 2 Z " fill="#4D9DDD" transform="translate(97,102)"/>
<path d="M0 0 C0.99 0.495 0.99 0.495 2 1 C1.67 1.66 1.34 2.32 1 3 C0.67 2.01 0.34 1.02 0 0 Z M-26 -1 C-25.01 -0.34 -24.02 0.32 -23 1 C-22.34 1 -21.68 1 -21 1 C-20.67 0.34 -20.34 -0.32 -20 -1 C-20 -0.34 -20 0.32 -20 1 C-19.071875 1 -18.14375 1 -17.1875 1 C-15.125 1 -13.0625 1 -11 1 C-10.34 0.34 -9.68 -0.32 -9 -1 C-9 -0.34 -9 0.32 -9 1 C-8.236875 1 -7.47375 1 -6.6875 1 C-4.79166667 1 -2.89583333 1 -1 1 C-1 1.99 -1 2.98 -1 4 C-13.54 4 -26.08 4 -39 4 C-38.34 2.68 -37.68 1.36 -37 0 C-35.948125 0.2475 -35.948125 0.2475 -34.875 0.5 C-31.86111806 1.02415338 -29.05286375 1.07099683 -26 1 C-26 0.34 -26 -0.32 -26 -1 Z " fill="#2A2A2A" transform="translate(95,59)"/>
<path d="M0 0 C0.66 0.33 1.32 0.66 2 1 C-8.66097131 14.19766544 -20.22399613 20.54899388 -37.06640625 22.93359375 C-40 23 -40 23 -43 21 C-41.71029297 20.87044922 -41.71029297 20.87044922 -40.39453125 20.73828125 C-23.35344881 18.71267821 -11.78385743 12.40406045 0 0 Z " fill="#686868" transform="translate(222,211)"/>
<path d="M0 0 C0.66 0 1.32 0 2 0 C0.52244678 9.56163748 -5.94686994 16.79547138 -13 23 C-13.77923828 23.70769531 -13.77923828 23.70769531 -14.57421875 24.4296875 C-20.15301818 28.95455757 -27.2685963 30.80599186 -34 33 C-34.33 32.34 -34.66 31.68 -35 31 C-31.535 30.505 -31.535 30.505 -28 30 C-28 29.34 -28 28.68 -28 28 C-24.535 27.505 -24.535 27.505 -21 27 C-20.67 26.01 -20.34 25.02 -20 24 C-18.51805029 22.96292408 -16.98851992 21.99311195 -15.4375 21.0625 C-7.90586356 15.99458395 -3.09992438 8.46279357 0 0 Z " fill="#3D4146" transform="translate(226,198)"/>
<path d="M0 0 C0.66 0 1.32 0 2 0 C1.90665013 6.84633505 1.79922582 13.69235206 1.68261719 20.53833008 C1.6446456 22.860872 1.60974119 25.18346639 1.578125 27.50610352 C1.40416614 40.13171116 1.18549177 52.53807424 -1 65 C-1.33 65 -1.66 65 -2 65 C-2.09859452 54.92144874 -2.01269114 44.94515679 -1.2890625 34.88671875 C-0.83567002 27.93315851 -0.65993267 20.96404106 -0.4375 14 C-0.41535431 13.30909271 -0.39320862 12.61818542 -0.37039185 11.90634155 C-0.24379381 7.93765535 -0.12053906 3.96887456 0 0 Z " fill="#43484F" transform="translate(24,99)"/>
<path d="M0 0 C0 3.5375065 -0.67674588 4.1817142 -2.75 6.9375 C-7.56687477 13.90659542 -9.75582695 21.68498212 -11 30 C-11.66 30 -12.32 30 -13 30 C-13.86979812 20.43222063 -9.92415054 10.45658065 -4 3 C-1.6875 1 -1.6875 1 0 0 Z " fill="#9B9B9B" transform="translate(36,41)"/>
<path d="M0 0 C0 0.66 0 1.32 0 2 C-0.55461914 2.02505615 -1.10923828 2.0501123 -1.68066406 2.07592773 C-4.20398843 2.19227927 -6.72697536 2.31482754 -9.25 2.4375 C-10.55904297 2.49647461 -10.55904297 2.49647461 -11.89453125 2.55664062 C-12.73886719 2.59853516 -13.58320313 2.64042969 -14.453125 2.68359375 C-15.22817383 2.72025146 -16.00322266 2.75690918 -16.80175781 2.79467773 C-18.99036021 2.94203918 -18.99036021 2.94203918 -21.02734375 3.51367188 C-23.13134428 4.03238092 -24.94565754 4.11404805 -27.109375 4.09765625 C-27.86347656 4.09443359 -28.61757812 4.09121094 -29.39453125 4.08789062 C-30.17183594 4.07951172 -30.94914063 4.07113281 -31.75 4.0625 C-32.54277344 4.05798828 -33.33554688 4.05347656 -34.15234375 4.04882812 C-36.10159508 4.03708565 -38.05080738 4.01915146 -40 4 C-36.96701482 1.97800988 -35.95848565 1.6916984 -32.484375 1.41015625 C-31.59685547 1.33684082 -30.70933594 1.26352539 -29.79492188 1.18798828 C-25.28162997 0.8844213 -20.7690595 0.63696645 -16.25 0.4375 C-15.34378906 0.39431641 -14.43757813 0.35113281 -13.50390625 0.30664062 C-8.99834567 0.09945061 -4.5117445 -0.05228843 0 0 Z " fill="#2D2E2E" transform="translate(167,230)"/>
<path d="M0 0 C2.64 1.32 5.28 2.64 8 4 C8.33 3.34 8.66 2.68 9 2 C9.33 3.65 9.66 5.3 10 7 C7.23735711 7.59732819 4.83967231 8 2 8 C-0.15028304 8.94978897 -0.15028304 8.94978897 -2 10 C-2.84454356 6.62182575 -3.10844919 4.32534757 -2 1 C-1.34 1.33 -0.68 1.66 0 2 C0 1.34 0 0.68 0 0 Z " fill="#4D9EDE" transform="translate(120,103)"/>
<path d="M0 0 C0.66 0 1.32 0 2 0 C4.04169485 2.90548882 5 4.40142046 5 8 C5.66 8.33 6.32 8.66 7 9 C4.525 10.485 4.525 10.485 2 12 C1.67 10.35 1.34 8.7 1 7 C-0.65 7.33 -2.3 7.66 -4 8 C-5.125 3.25 -5.125 3.25 -4 1 C-2.02 1.495 -2.02 1.495 0 2 C0 1.34 0 0.68 0 0 Z " fill="#4A7FB6" transform="translate(163,148)"/>
<path d="M0 0 C4.875 1.75 4.875 1.75 6 4 C5.0625 6.625 5.0625 6.625 4 9 C3.01 8.67 2.02 8.34 1 8 C0.01 8 -0.98 8 -2 8 C-3.125 4.25 -3.125 4.25 -2 2 C-1.34 2 -0.68 2 0 2 C0 1.34 0 0.68 0 0 Z " fill="#4D9EDF" transform="translate(180,103)"/>
<path d="M0 0 C0.66 0.33 1.32 0.66 2 1 C-2.59770122 6.69168801 -7.57978473 12.32952809 -14 16 C-14.99 15.67 -15.98 15.34 -17 15 C-16.27554688 14.41992188 -15.55109375 13.83984375 -14.8046875 13.2421875 C-9.60374413 9.03982526 -4.60347013 4.85230636 0 0 Z " fill="#727272" transform="translate(222,211)"/>
<path d="M0 0 C-1.57967807 0.67528223 -3.16391903 1.33989694 -4.75 2 C-5.63171875 2.37125 -6.5134375 2.7425 -7.421875 3.125 C-10 4 -10 4 -14 4 C-14 4.66 -14 5.32 -14 6 C-17 8 -17 8 -20 8 C-20.33 8.99 -20.66 9.98 -21 11 C-23.0625 11.6875 -23.0625 11.6875 -25 12 C-25 11.34 -25 10.68 -25 10 C-18.92423886 4.64911275 -8.43902722 -2.98309799 0 0 Z " fill="#5D5F61" transform="translate(66,27)"/>
<path d="M0 0 C3 1 3 1 5 3 C7.10820797 2.6814823 7.10820797 2.6814823 9 2 C9.33 3.65 9.66 5.3 10 7 C7.525 8.485 7.525 8.485 5 10 C4.15801693 8.90241493 3.32669329 7.79664683 2.5 6.6875 C2.0359375 6.07261719 1.571875 5.45773438 1.09375 4.82421875 C0 3 0 3 0 0 Z " fill="#4B7FB5" transform="translate(147,149)"/>
<path d="M0 0 C0.99 0.99 1.98 1.98 3 3 C3.66 2.67 4.32 2.34 5 2 C7 4 7 4 8 7 C4.535 8.485 4.535 8.485 1 10 C-2 4.25 -2 4.25 -2 2 C-1.34 2 -0.68 2 0 2 C0 1.34 0 0.68 0 0 Z " fill="#4D9DDD" transform="translate(157,103)"/>
<path d="M0 0 C0.66 0.66 1.32 1.32 2 2 C1.34 2 0.68 2 0 2 C0 1.34 0 0.68 0 0 Z M-2 2 C-1.34 2 -0.68 2 0 2 C-0.33 2.99 -0.66 3.98 -1 5 C-1.66 5 -2.32 5 -3 5 C-2.67 4.01 -2.34 3.02 -2 2 Z M-5 5 C-3.125 5.125 -3.125 5.125 -1 6 C0.25 9.0625 0.25 9.0625 1 12 C0.01 12.99 -0.98 13.98 -2 15 C-2.66 13.68 -3.32 12.36 -4 11 C-4.33 11 -4.66 11 -5 11 C-5 9.02 -5 7.04 -5 5 Z " fill="#1A1A1A" transform="translate(35,162)"/>
<path d="M0 0 C0.33 0.99 0.66 1.98 1 3 C2.93330603 4.09166275 2.93330603 4.09166275 5 5 C5.66 5.66 6.32 6.32 7 7 C7.66 6.67 8.32 6.34 9 6 C9 6.66 9 7.32 9 8 C9.66 8.33 10.32 8.66 11 9 C9.35 9.66 7.7 10.32 6 11 C5.236875 10.175 4.47375 9.35 3.6875 8.5 C1.24565858 5.65944803 1.24565858 5.65944803 -2 6 C-2 5.01 -2 4.02 -2 3 C-1.34 3 -0.68 3 0 3 C0 2.01 0 1.02 0 0 Z " fill="#498CC9" transform="translate(191,134)"/>
<path d="M0 0 C1.65 0 3.3 0 5 0 C6.0625 1.8125 6.0625 1.8125 7 4 C6.67 4.99 6.34 5.98 6 7 C4 7 2 7 0 7 C-1.125 2.25 -1.125 2.25 0 0 Z " fill="#498DC9" transform="translate(98,127)"/>
<path d="M0 0 C0.66 0 1.32 0 2 0 C1.34 7.26 0.68 14.52 0 22 C-0.33 22 -0.66 22 -1 22 C-1.02887814 18.52085059 -1.04675687 15.04173169 -1.0625 11.5625 C-1.07087891 10.56927734 -1.07925781 9.57605469 -1.08789062 8.55273438 C-1.09111328 7.60849609 -1.09433594 6.66425781 -1.09765625 5.69140625 C-1.10289307 4.81685791 -1.10812988 3.94230957 -1.11352539 3.04125977 C-1 1 -1 1 0 0 Z " fill="#393A3B" transform="translate(23,164)"/>
<path d="M0 0 C0.33 0.66 0.66 1.32 1 2 C1.66 2 2.32 2 3 2 C3.48009262 4.06228466 3.95903544 6.12483701 4.4375 8.1875 C4.83775391 9.91033203 4.83775391 9.91033203 5.24609375 11.66796875 C5.87312201 14.43923875 6.45899177 17.21091874 7 20 C4.36562124 16.85988091 3.07995273 13.88491259 1.8125 10 C1.46832031 8.96875 1.12414062 7.9375 0.76953125 6.875 C0 4 0 4 0 0 Z " fill="#38393A" transform="translate(23,188)"/>
<path d="M0 0 C1.32 0.33 2.64 0.66 4 1 C4 1.99 4 2.98 4 4 C4.3062434 5.33981486 4.63451555 6.67511887 5 8 C4.01 7.34 3.02 6.68 2 6 C1.01 6.66 0.02 7.32 -1 8 C-2 6 -2 6 -1.0625 2.875 C-0.5365625 1.451875 -0.5365625 1.451875 0 0 Z M5 4 C5.66 4 6.32 4 7 4 C6.67 4.99 6.34 5.98 6 7 C5.67 6.01 5.34 5.02 5 4 Z " fill="#498CC8" transform="translate(133,127)"/>
<path d="M0 0 C0.66 0 1.32 0 2 0 C1.42069896 4.77923358 -0.39853671 8.02129144 -3 12 C-3.99 12.33 -4.98 12.66 -6 13 C-4.31326082 8.50202887 -2.18326108 4.27113698 0 0 Z " fill="#383A3D" transform="translate(226,198)"/>
<path d="M0 0 C0 1.65 0 3.3 0 5 C-1.98 5.99 -1.98 5.99 -4 7 C-4.66 6.34 -5.32 5.68 -6 5 C-5.34 5 -4.68 5 -4 5 C-3.87625 4.360625 -3.7525 3.72125 -3.625 3.0625 C-3.41875 2.381875 -3.2125 1.70125 -3 1 C-1 0 -1 0 0 0 Z " fill="#4D9CDB" transform="translate(107,106)"/>
<path d="M0 0 C0.99 0.33 1.98 0.66 3 1 C4.1875 3.5625 4.1875 3.5625 5 6 C4.01 6 3.02 6 2 6 C0 3 0 3 0 0 Z " fill="#4B7FB5" transform="translate(135,149)"/>
</svg>
